<svg width="170" height="170" viewBox="0 0 170 170" fill="none" xmlns="http://www.w3.org/2000/svg">
<path d="M113.572 106.732L136.518 129.678L136.825 129.528C138.887 128.522 141.148 127.993 143.442 127.982C146.499 127.983 149.488 128.89 152.029 130.588C154.571 132.286 156.554 134.701 157.724 137.525C158.894 140.35 159.199 143.458 158.603 146.457C158.006 149.456 156.534 152.21 154.372 154.372C152.21 156.534 149.456 158.006 146.457 158.603C143.458 159.199 140.35 158.894 137.525 157.724C134.701 156.554 132.286 154.571 130.588 152.029C128.89 149.488 127.983 146.501 127.982 143.444C127.996 141.15 128.526 138.887 129.533 136.825L129.684 136.518L129.441 136.276L109.706 116.54L109.565 116.4H96.1074V106.732H113.572ZM145.657 138.091C144.599 137.653 143.435 137.537 142.312 137.761C141.188 137.984 140.157 138.537 139.347 139.347C138.537 140.157 137.984 141.188 137.761 142.312C137.537 143.435 137.652 144.6 138.091 145.658C138.529 146.716 139.271 147.621 140.224 148.257C141.176 148.893 142.296 149.232 143.441 149.232C144.977 149.232 146.45 148.622 147.536 147.536C148.622 146.45 149.232 144.977 149.232 143.441C149.232 142.296 148.893 141.176 148.257 140.224C147.62 139.271 146.715 138.529 145.657 138.091ZM143.442 69.5449C146.271 69.5399 149.047 70.3127 151.466 71.7783C153.885 73.2441 155.856 75.3468 157.161 77.8564C158.466 80.366 159.056 83.1864 158.867 86.0088C158.678 88.831 157.717 91.5474 156.089 93.8604C154.46 96.1734 152.227 97.9951 149.634 99.125C147.041 100.255 144.187 100.65 141.384 100.268C138.581 99.8852 135.937 98.7394 133.741 96.9561C131.545 95.1727 129.882 92.82 128.933 90.1553L128.819 89.8379H96.1074V80.1699H128.82L128.934 79.8506C129.992 76.8451 131.955 74.2406 134.553 72.3955C136.988 70.6656 139.87 69.6825 142.847 69.5586L143.442 69.5449ZM145.657 79.6533C144.599 79.2151 143.435 79.0998 142.312 79.3232C141.188 79.5467 140.157 80.0992 139.347 80.9092C138.537 81.7191 137.984 82.7506 137.761 83.874C137.537 84.9973 137.653 86.1616 138.091 87.2197C138.529 88.2779 139.271 89.183 140.224 89.8193C141.176 90.4557 142.296 90.7949 143.441 90.7949C144.977 90.7949 146.45 90.1847 147.536 89.0986C148.622 88.0125 149.232 86.5399 149.232 85.0039C149.232 83.8585 148.893 82.7385 148.257 81.7861C147.62 80.8338 146.715 80.0916 145.657 79.6533ZM143.441 11.1074C145.739 11.1053 148.008 11.6161 150.084 12.6016C152.16 13.5871 153.99 15.0229 155.44 16.8047C156.891 18.5864 157.926 20.6693 158.47 22.9014C159.014 25.1336 159.053 27.4595 158.585 29.709C158.117 31.9584 157.153 34.0753 155.764 35.9053C154.374 37.7352 152.595 39.2328 150.554 40.2881C148.513 41.3433 146.262 41.93 143.966 42.0059C141.67 42.0817 139.385 41.6448 137.279 40.7266L136.985 40.5977L136.755 40.8203L113.519 63.2754H96.1074V53.6074H109.614L109.753 53.4736L129.686 34.2051L129.945 33.9541L129.775 33.6357C128.616 31.4587 128.001 29.0329 127.982 26.5664C127.987 22.4679 129.618 18.5388 132.516 15.6406C135.414 12.7425 139.343 11.1116 143.441 11.1074ZM145.657 21.2158C144.599 20.7776 143.435 20.6623 142.312 20.8857C141.188 21.1092 140.157 21.6617 139.347 22.4717C138.537 23.2816 137.984 24.3131 137.761 25.4365C137.537 26.5598 137.653 27.7241 138.091 28.7822C138.529 29.8404 139.271 30.7455 140.224 31.3818C141.176 32.0182 142.296 32.3574 143.441 32.3574C144.977 32.3574 146.45 31.7472 147.536 30.6611C148.622 29.575 149.232 28.1024 149.232 26.5664C149.232 25.421 148.893 24.301 148.257 23.3486C147.62 22.3963 146.715 21.6541 145.657 21.2158Z" fill="url(#paint0_linear_366_441)" stroke="url(#paint1_linear_366_441)" stroke-width="0.957944"/>
<path d="M63.7559 21.7285C66.7146 21.7384 69.6369 22.3851 72.3242 23.623C75.0116 24.861 77.4017 26.662 79.332 28.9043L79.6953 29.3262L80.0586 28.9043C81.989 26.662 84.3791 24.861 87.0664 23.623C89.5858 22.4625 92.3113 21.8219 95.0801 21.7383L95.6348 21.7285H105.779V31.3965H95.6328C92.6889 31.3994 89.8658 32.5697 87.7842 34.6514C85.7025 36.733 84.5322 39.5561 84.5293 42.5V127.5C84.5322 130.444 85.7025 133.267 87.7842 135.349C89.8658 137.43 92.6889 138.601 95.6328 138.604H105.779V148.271H95.6348C92.676 148.262 89.7538 147.615 87.0664 146.377C84.3791 145.139 81.989 143.338 80.0586 141.096L79.6953 140.674L79.332 141.096C77.4017 143.338 75.0116 145.139 72.3242 146.377C69.6369 147.615 66.7146 148.262 63.7559 148.271H58.4463C45.8968 148.258 33.8651 143.265 24.9912 134.392C16.1174 125.518 11.1252 113.486 11.1113 100.937V69.0635C11.1252 56.514 16.1174 44.4822 24.9912 35.6084C33.5876 27.012 45.1472 22.059 57.2705 21.7451L58.4463 21.7285H63.7559ZM58.4443 31.3965C49.3961 31.4127 40.6557 34.6829 33.8193 40.6104C26.983 46.5378 22.5071 54.727 21.209 63.6816L21.1299 64.2285H37.1953C38.7313 64.2285 40.2039 63.6183 41.29 62.5322C42.3762 61.4461 42.9863 59.9735 42.9863 58.4375V48.291H52.6543V58.4375L52.6484 58.8203C52.5465 62.7801 50.9289 66.5555 48.1211 69.3633C45.223 72.2614 41.2939 73.8923 37.1953 73.8965H20.7793V96.1035H31.4043V105.771H21.1299L21.209 106.318C22.5071 115.273 26.983 123.462 33.8193 129.39C40.6557 135.317 49.3961 138.587 58.4443 138.604H63.7578C66.7017 138.601 69.5248 137.43 71.6064 135.349C73.6881 133.267 74.8584 130.444 74.8613 127.5V105.771H63.7578C62.2218 105.771 60.7492 106.382 59.6631 107.468C58.577 108.554 57.9668 110.027 57.9668 111.562V121.709H48.2988V111.562C48.303 107.464 49.9339 103.535 52.832 100.637C55.6398 97.8289 59.4152 96.2113 63.375 96.1094L63.7578 96.1035H74.8613V73.8965H64.2363V64.2285H74.8613V42.5L74.8477 41.9492C74.709 39.2057 73.558 36.603 71.6064 34.6514C69.5248 32.5697 66.7017 31.3994 63.7578 31.3965H58.4443Z" fill="url(#paint2_linear_366_441)" stroke="url(#paint3_linear_366_441)" stroke-width="0.957944"/>
<defs>
<linearGradient id="paint0_linear_366_441" x1="127.509" y1="10.6289" x2="127.509" y2="159.379" gradientUnits="userSpaceOnUse">
<stop offset="0.197115" stop-color="#1FBCD7"/>
<stop offset="0.504808" stop-color="#FEB449"/>
<stop offset="1" stop-color="#FE5C36"/>
</linearGradient>
<linearGradient id="paint1_linear_366_441" x1="127.509" y1="10.6289" x2="127.509" y2="159.379" gradientUnits="userSpaceOnUse">
<stop offset="0.197115" stop-color="#1FBCD7"/>
<stop offset="0.504808" stop-color="#FEB449"/>
<stop offset="1" stop-color="#FE5C36"/>
</linearGradient>
<linearGradient id="paint2_linear_366_441" x1="58.4453" y1="21.25" x2="58.4453" y2="148.75" gradientUnits="userSpaceOnUse">
<stop offset="0.197115" stop-color="#1FBCD7"/>
<stop offset="0.504808" stop-color="#FEB449"/>
<stop offset="1" stop-color="#FE5C36"/>
</linearGradient>
<linearGradient id="paint3_linear_366_441" x1="58.4453" y1="21.25" x2="58.4453" y2="148.75" gradientUnits="userSpaceOnUse">
<stop offset="0.197115" stop-color="#1FBCD7"/>
<stop offset="0.504808" stop-color="#FEB449"/>
<stop offset="1" stop-color="#FE5C36"/>
</linearGradient>
</defs>
</svg>
