<svg width="170" height="170" viewBox="0 0 170 170" fill="none" xmlns="http://www.w3.org/2000/svg">
<path d="M85 56.6667L63.75 69.0625V93.8542L85 106.25L106.25 93.8542V69.0625L85 56.6667ZM95.7454 71.1167L84.9079 77.435L74.1625 71.1663L85 64.8479L95.7454 71.1167ZM70.7625 77.3642L81.2742 83.4983V95.8942L70.7625 89.7671V77.3642ZM88.2867 96.1562V83.64L99.2375 77.2508V89.7671L88.2867 96.1562ZM21.25 0L0 12.3958V37.1875L21.25 49.5833L42.5 37.1875V12.3958L21.25 0ZM31.9954 14.45L21.1579 20.7683L10.4125 14.4996L21.25 8.18125L31.9954 14.45ZM7.0125 20.6904L17.5242 26.8246V39.2204L7.0125 33.1075V20.6904ZM24.5367 39.4825V26.9733L35.4875 20.5842V33.1004L24.5367 39.4825ZM21.25 120.417L0 132.812V157.604L21.25 170L42.5 157.604V132.812L21.25 120.417ZM31.9954 134.867L21.1579 141.185L10.4125 134.916L21.25 128.598L31.9954 134.867ZM7.0125 141.114L17.5242 147.248V159.644L7.0125 153.524V141.114ZM24.5367 159.906V147.39L35.4875 141.001V153.517L24.5367 159.906ZM148.75 0L127.5 12.3958V37.1875L148.75 49.5833L170 37.1875V12.3958L148.75 0ZM159.495 14.45L148.658 20.7683L137.912 14.4996L148.75 8.18125L159.495 14.45ZM134.512 20.6975L145.024 26.8317V39.2275L134.512 33.1004V20.6975ZM152.037 39.4896V26.9733L162.988 20.5842V33.1004L152.037 39.4896ZM148.75 120.417L127.5 132.812V157.604L148.75 170L170 157.604V132.812L148.75 120.417ZM159.495 134.867L148.658 141.185L137.912 134.916L148.75 128.598L159.495 134.867ZM134.512 141.114L145.024 147.248V159.644L134.512 153.517V141.114ZM152.037 159.906V147.39L162.988 141.001V153.517L152.037 159.906ZM63.75 21.25H106.25V28.3333H63.75V21.25ZM63.75 141.667H106.25V148.75H63.75V141.667ZM24.7917 63.75V106.25H17.7083V63.75H24.7917ZM51.6588 62.5317L36.635 47.5079L41.6429 42.5L56.6667 57.5167L51.6588 62.5317ZM113.333 58.7421L128.357 43.7183L133.365 48.7263L118.341 63.75L113.333 58.7421ZM57.5733 105.393L42.5496 120.417L37.5417 115.409L52.5654 100.385L57.5733 105.393ZM119.56 100.08L134.583 115.104L129.575 120.112L114.552 105.088L119.56 100.08ZM152.292 63.75V106.25H145.208V63.75H152.292Z" fill="url(#paint0_linear_366_496)"/>
<defs>
<linearGradient id="paint0_linear_366_496" x1="85" y1="0" x2="85" y2="170" gradientUnits="userSpaceOnUse">
<stop offset="0.197115" stop-color="#1FBCD7"/>
<stop offset="0.504808" stop-color="#FEB449"/>
<stop offset="1" stop-color="#FE5C36"/>
</linearGradient>
</defs>
</svg>
