<svg width="111" height="111" viewBox="0 0 111 111" fill="none" xmlns="http://www.w3.org/2000/svg">
<path d="M23.6365 8.34766L18.7525 13.2247L26.0195 20.4883L30.8966 15.6112L23.6365 8.34766ZM87.3748 8.34766L80.1077 15.6112L84.9883 20.4883L92.2518 13.2282L87.3748 8.34766ZM55.5039 10.5122C54.3592 10.526 53.2007 10.5919 52.0352 10.7342C52.0005 10.7342 51.9658 10.7272 51.9311 10.7342C37.8618 12.3471 26.6647 23.7142 24.7187 37.721C23.1647 48.9945 27.8129 59.2169 35.5586 65.8006C38.727 68.5046 40.8701 72.2152 41.6289 76.3109V97.1234H49.5377C50.7448 99.1942 52.9474 100.592 55.5039 100.592C58.0604 100.592 60.263 99.1942 61.4701 97.1234H69.3789V83.2484H69.705V79.1275C69.705 74.0423 72.3482 68.9155 76.6425 64.9299C82.3867 59.1787 86.7226 51.0098 86.7226 41.6268C86.7226 24.4912 72.6187 10.3526 55.5039 10.5122ZM55.5039 17.4497C68.9106 17.2623 79.7851 28.2375 79.7851 41.6268C79.7851 48.8904 76.4205 55.2868 71.7619 59.9418L71.8729 60.0528C67.2435 64.3218 64.2499 70.0734 63.4092 76.3143H48.2369C47.4737 70.3689 44.9242 64.6143 40.1061 60.4864C33.9768 55.2833 30.3242 47.4439 31.5452 38.5917C33.0611 27.6651 41.9272 18.8788 52.7913 17.6751C53.6883 17.5501 54.5916 17.476 55.497 17.4531L55.5039 17.4497ZM6.94141 41.6268V48.5643H17.3477V41.6268H6.94141ZM93.6601 41.6268V48.5643H104.066V41.6268H93.6601ZM26.0195 69.7029L18.756 76.963L23.6365 81.8435L30.8931 74.58L26.0195 69.7029ZM84.9883 69.7029L80.1112 74.58L87.3713 81.8435L92.2518 76.963L84.9883 69.7029ZM48.5664 83.2518H62.4414V90.1893H48.5664V83.2518Z" fill="url(#paint0_linear_366_432)"/>
<defs>
<linearGradient id="paint0_linear_366_432" x1="55.5039" y1="8.34766" x2="55.5039" y2="100.592" gradientUnits="userSpaceOnUse">
<stop offset="0.197115" stop-color="#1FBCD7"/>
<stop offset="0.504808" stop-color="#FEB449"/>
<stop offset="1" stop-color="#FE5C36"/>
</linearGradient>
</defs>
</svg>
