<svg width="170" height="170" viewBox="0 0 170 170" fill="none" xmlns="http://www.w3.org/2000/svg">
<path d="M159.375 100.934H138.125V79.6836H127.5V127.496H42.5V42.4961H90.3125V31.8711H69.0625V10.6211H58.4375V31.8711H42.5C39.6829 31.8739 36.9821 32.9942 34.9901 34.9862C32.9981 36.9782 31.8778 39.679 31.875 42.4961V58.4336H10.625V69.0586H31.875V100.934H10.625V111.559H31.875V127.496C31.8778 130.313 32.9981 133.014 34.9901 135.006C36.9821 136.998 39.6829 138.118 42.5 138.121H58.4375V159.371H69.0625V138.121H100.938V159.371H111.562V138.121H127.5C130.317 138.117 133.017 136.996 135.008 135.004C137 133.013 138.121 130.313 138.125 127.496V111.559H159.375V100.934Z" fill="url(#paint0_linear_366_452)"/>
<path d="M111.559 111.559H58.4336V58.4336H111.559V111.559ZM69.0586 100.934H100.934V69.0586H69.0586V100.934ZM164.684 69.0586H154.059C154.042 54.9741 148.439 41.4714 138.48 31.5122C128.521 21.553 115.018 15.9505 100.934 15.9336V5.30859C117.836 5.32687 134.04 12.0492 145.991 24.0007C157.943 35.9522 164.665 52.1567 164.684 69.0586Z" fill="url(#paint1_linear_366_452)"/>
<path d="M138.117 69.0586H127.492C127.484 62.0164 124.683 55.265 119.703 50.2854C114.723 45.3058 107.972 42.5045 100.93 42.4961V31.8711C110.789 31.8837 120.24 35.8058 127.211 42.777C134.183 49.7483 138.105 59.1997 138.117 69.0586Z" fill="url(#paint2_linear_366_452)"/>
<defs>
<linearGradient id="paint0_linear_366_452" x1="85" y1="10.6211" x2="85" y2="159.371" gradientUnits="userSpaceOnUse">
<stop offset="0.197115" stop-color="#1FBCD7"/>
<stop offset="0.504808" stop-color="#FEB449"/>
<stop offset="1" stop-color="#FE5C36"/>
</linearGradient>
<linearGradient id="paint1_linear_366_452" x1="111.559" y1="5.30859" x2="111.559" y2="111.559" gradientUnits="userSpaceOnUse">
<stop offset="0.197115" stop-color="#1FBCD7"/>
<stop offset="0.504808" stop-color="#FEB449"/>
<stop offset="1" stop-color="#FE5C36"/>
</linearGradient>
<linearGradient id="paint2_linear_366_452" x1="119.523" y1="31.8711" x2="119.523" y2="69.0586" gradientUnits="userSpaceOnUse">
<stop offset="0.197115" stop-color="#1FBCD7"/>
<stop offset="0.504808" stop-color="#FEB449"/>
<stop offset="1" stop-color="#FE5C36"/>
</linearGradient>
</defs>
</svg>
