<svg width="112" height="112" viewBox="0 0 112 112" fill="none" xmlns="http://www.w3.org/2000/svg">
<path d="M71.9707 39.1533V60.6523C71.962 63.7575 71.0758 66.7971 69.415 69.4209C67.7538 72.0453 65.3847 74.1469 62.5811 75.4834L55.5654 78.8057L48.5469 75.4854C45.7446 74.1487 43.3764 72.0473 41.7158 69.4238C40.1586 66.9634 39.283 64.1373 39.1729 61.2344L39.1611 60.6533V39.1533H71.9707ZM44.1904 60.6582C44.1957 62.811 44.8094 64.9184 45.9609 66.7373C47.1125 68.5562 48.7547 70.0129 50.6982 70.9385L50.7012 70.9395L55.1562 73.0469L55.5664 73.2412L55.9766 73.0469L60.4316 70.9316H60.4326C62.3752 70.0066 64.0174 68.5509 65.1689 66.7334C66.3203 64.9161 66.9346 62.8105 66.9414 60.6592V44.1826H44.1904V60.6582Z" fill="url(#paint0_linear_366_474)" stroke="#FFF7F3" stroke-width="1.91589"/>
<path d="M55.5586 4.42676C57.1462 4.42676 58.6692 5.05727 59.792 6.17969L79.9287 26.3203L80.6016 26.9932L81.2793 26.3252L91.2598 16.4766L91.665 16.0762L91.5068 15.5293C91.1412 14.2613 91.2046 12.9082 91.6865 11.6797C92.1686 10.4511 93.0424 9.4155 94.1729 8.73438C95.3033 8.05326 96.627 7.76412 97.9385 7.91211C99.2498 8.06009 100.476 8.63696 101.426 9.55273C102.376 10.4686 102.998 11.6725 103.194 12.9775C103.39 14.2827 103.15 15.6167 102.511 16.7715C101.872 17.9261 100.869 18.8374 99.6592 19.3643C98.4492 19.8911 97.099 20.0043 95.8184 19.6855L95.2969 19.5557L94.9141 19.9326L84.8438 29.8711L84.1572 30.5488L104.935 51.3262C106.057 52.4489 106.687 53.9711 106.688 55.5586C106.688 57.1462 106.057 58.6692 104.935 59.792L84.8428 79.8877L84.1611 80.5693L84.8467 81.2461L94.917 91.1885L95.2988 91.5654L95.8193 91.4365C97.0971 91.1217 98.443 91.2378 99.6484 91.7656C100.854 92.2935 101.852 93.204 102.487 94.3564C103.123 95.509 103.36 96.8395 103.163 98.1406C102.966 99.4416 102.344 100.641 101.396 101.554C100.447 102.466 99.2237 103.04 97.916 103.187C96.6083 103.333 95.289 103.044 94.1621 102.364C93.0352 101.685 92.1633 100.653 91.6826 99.4277C91.202 98.2026 91.1397 96.8525 91.5039 95.5879L91.6611 95.041L91.2559 94.6416L81.2832 84.793L80.6055 84.124L79.9326 84.7979L59.792 104.935C58.6692 106.057 57.1462 106.688 55.5586 106.688C53.9711 106.687 52.4489 106.057 51.3262 104.935L31.2305 84.8428L30.5488 84.1611L29.8711 84.8467L19.9326 94.918L19.5566 95.2988L19.6846 95.8193C19.9993 97.097 19.8841 98.4431 19.3564 99.6484C18.8286 100.854 17.9172 101.852 16.7646 102.487C15.6122 103.123 14.2825 103.36 12.9814 103.163C11.6803 102.966 10.4807 102.344 9.56836 101.396C8.65605 100.447 8.08122 99.2239 7.93457 97.916C7.78807 96.6084 8.07738 95.2889 8.75684 94.1621C9.43643 93.0351 10.4692 92.1633 11.6943 91.6826C12.9193 91.2022 14.2687 91.1397 15.5332 91.5039L16.0801 91.6611L16.4805 91.2559L26.3252 81.2793L26.9932 80.6016L26.3203 79.9287L6.17969 59.792C5.05727 58.6692 4.42676 57.1462 4.42676 55.5586C4.42684 53.9712 5.05739 52.4488 6.17969 51.3262L26.3203 31.1885L26.9932 30.5156L26.3252 29.8389L16.4805 19.8623L16.0801 19.4561L15.5322 19.6143C14.2647 19.9809 12.9115 19.9192 11.6826 19.4385C10.4538 18.9576 9.41748 18.0847 8.73535 16.9551C8.05323 15.8254 7.76252 14.5019 7.90918 13.1904C8.05585 11.879 8.63115 10.6523 9.5459 9.70117C10.4607 8.75014 11.6641 8.12729 12.9688 7.92969C14.2734 7.73217 15.6074 7.97083 16.7627 8.6084C17.9181 9.2461 18.8311 10.2477 19.3594 11.457C19.8876 12.6663 20.0017 14.016 19.6846 15.2969L19.5557 15.8184L19.9326 16.2002L29.8711 26.2773L30.5488 26.9639L31.2305 26.2822L51.3262 6.17969C52.4488 5.05739 53.9712 4.42684 55.5586 4.42676ZM9.06152 55.5586L9.73828 56.2363L54.8818 101.379L55.5586 102.057L102.057 55.5586L101.379 54.8818L56.2363 9.73828L55.5586 9.06152L9.06152 55.5586Z" fill="url(#paint1_linear_366_474)" stroke="#FFF7F3" stroke-width="1.91589"/>
<defs>
<linearGradient id="paint0_linear_366_474" x1="55.5659" y1="38.1953" x2="55.5659" y2="79.8659" gradientUnits="userSpaceOnUse">
<stop offset="0.197115" stop-color="#1FBCD7"/>
<stop offset="0.504808" stop-color="#FEB449"/>
<stop offset="1" stop-color="#FE5C36"/>
</linearGradient>
<linearGradient id="paint1_linear_366_474" x1="55.5572" y1="3.46875" x2="55.5572" y2="107.646" gradientUnits="userSpaceOnUse">
<stop offset="0.197115" stop-color="#1FBCD7"/>
<stop offset="0.504808" stop-color="#FEB449"/>
<stop offset="1" stop-color="#FE5C36"/>
</linearGradient>
</defs>
</svg>
