<svg width="1046" height="1048" viewBox="0 0 1046 1048" fill="none" xmlns="http://www.w3.org/2000/svg">
<g opacity="0.08">
<path d="M623.212 10.1133H422.785V11.9652H623.212V10.1133Z" fill="url(#paint0_linear_481_85)"/>
<path d="M721.13 39.4102H324.832V41.2621H721.13V39.4102Z" fill="url(#paint1_linear_481_85)"/>
<path d="M812.352 87.8828H233.645V89.7347H812.352V87.8828Z" fill="url(#paint2_linear_481_85)"/>
<path d="M892.302 153.695H153.719V155.547H892.302V153.695Z" fill="url(#paint3_linear_481_85)"/>
<path d="M957.458 232.383H88.5352V234.235H957.458V232.383Z" fill="url(#paint4_linear_481_85)"/>
<path d="M1006.14 323.75H39.8398V325.602H1006.14V323.75Z" fill="url(#paint5_linear_481_85)"/>
<path d="M1035.76 421.945H10.2539V423.797H1035.76V421.945Z" fill="url(#paint6_linear_481_85)"/>
<path d="M1045.54 523.102H0.46875V524.953H1045.54V523.102Z" fill="url(#paint7_linear_481_85)"/>
<path d="M623.208 1036.09H422.781V1037.94H623.208V1036.09Z" fill="url(#paint8_linear_481_85)"/>
<path d="M721.158 1006.79H324.859V1008.64H721.158V1006.79Z" fill="url(#paint9_linear_481_85)"/>
<path d="M812.345 958.312H233.637V960.164H812.345V958.312Z" fill="url(#paint10_linear_481_85)"/>
<path d="M892.294 892.5H153.711V894.352H892.294V892.5Z" fill="url(#paint11_linear_481_85)"/>
<path d="M957.454 813.812H88.5312V815.664H957.454V813.812Z" fill="url(#paint12_linear_481_85)"/>
<path d="M1006.17 722.516H39.8672V724.368H1006.17V722.516Z" fill="url(#paint13_linear_481_85)"/>
<path d="M1035.75 624.25H10.2461V626.102H1035.75V624.25Z" fill="url(#paint14_linear_481_85)"/>
<path d="M522.991 1047.05C452.386 1047.05 383.892 1033.21 319.416 1005.93C257.144 979.582 201.204 941.877 153.172 893.838C105.139 845.8 67.4385 789.872 41.089 727.573C13.8321 663.089 0 594.587 0 523.973C0 453.36 13.8321 384.857 41.1075 320.374C67.457 258.094 105.157 202.147 153.19 154.109C201.223 106.07 257.144 68.3648 319.435 42.012C383.892 14.7518 452.386 0.917969 522.991 0.917969C593.596 0.917969 662.09 14.7518 726.565 42.0305C788.838 68.3833 844.777 106.088 892.81 154.127C940.843 202.166 978.543 258.112 1004.89 320.392C1032.17 384.876 1046 453.378 1046 523.992C1046 594.606 1032.17 663.108 1004.89 727.592C978.543 789.872 940.843 845.818 892.81 893.857C844.777 941.896 788.856 979.601 726.565 1005.95C662.09 1033.23 593.596 1047.07 522.991 1047.07V1047.05ZM522.991 1.84393C235.127 1.84393 0.925844 236.074 0.925844 523.973C0.925844 811.872 235.127 1046.1 522.991 1046.1C810.854 1046.1 1045.06 811.872 1045.06 523.973C1045.06 236.074 810.873 1.84393 522.991 1.84393Z" fill="url(#paint15_linear_481_85)"/>
<path d="M522.976 1047.05C453.927 1047.05 386.951 1033.21 323.901 1005.93C262.999 979.582 208.3 941.877 161.342 893.838C114.383 845.8 77.4972 789.872 51.7402 727.573C25.0759 663.089 11.5586 594.587 11.5586 523.973C11.5586 453.36 25.0759 384.857 51.7402 320.374C77.4972 258.094 114.364 202.147 161.342 154.109C208.319 106.07 262.999 68.3648 323.901 42.012C386.951 14.7518 453.945 0.917969 522.976 0.917969C592.007 0.917969 659.001 14.7518 722.051 42.0305C782.953 68.3833 837.652 106.088 884.611 154.127C931.57 202.166 968.455 258.112 994.212 320.392C1020.88 384.876 1034.39 453.378 1034.39 523.992C1034.39 594.606 1020.88 663.108 994.212 727.592C968.455 789.872 931.588 845.818 884.611 893.857C837.652 941.896 782.953 979.619 722.051 1005.95C659.001 1033.23 592.026 1047.07 522.976 1047.07V1047.05ZM522.976 1.84393C241.483 1.84393 12.4844 236.074 12.4844 523.973C12.4844 811.872 241.501 1046.1 522.995 1046.1C804.488 1046.1 1033.51 811.872 1033.51 523.973C1033.51 236.074 804.47 1.84393 522.976 1.84393Z" fill="url(#paint16_linear_481_85)"/>
<path d="M522.997 1047.05C457.577 1047.05 394.12 1033.21 334.384 1005.93C276.686 979.582 224.875 941.877 180.379 893.838C135.883 845.8 100.96 789.872 76.5551 727.573C51.2981 663.089 38.4844 594.587 38.4844 523.992C38.4844 453.397 51.2981 384.894 76.5551 320.411C100.96 258.131 135.883 202.184 180.379 154.146C224.875 106.107 276.686 68.3833 334.384 42.049C394.138 14.7518 457.595 0.917969 522.997 0.917969C588.399 0.917969 651.875 14.7518 711.61 42.0305C769.309 68.3833 821.119 106.088 865.615 154.127C910.111 202.166 945.034 258.094 969.439 320.392C994.696 384.876 1007.51 453.378 1007.51 523.973C1007.51 594.569 994.696 663.071 969.439 727.555C945.034 789.835 910.111 845.781 865.615 893.82C821.119 941.859 769.309 979.582 711.61 1005.92C651.875 1033.2 588.417 1047.03 522.997 1047.03V1047.05ZM522.997 1.84393C256.354 1.84393 39.4102 236.074 39.4102 523.973C39.4102 811.872 256.354 1046.1 522.997 1046.1C789.64 1046.1 1006.58 811.872 1006.58 523.973C1006.58 236.074 789.64 1.84393 522.997 1.84393Z" fill="url(#paint17_linear_481_85)"/>
<path d="M522.997 1047.52C406.674 1047.52 297.313 993.033 215.08 894.122C132.883 795.248 87.6094 663.799 87.6094 523.998C87.6094 384.197 132.883 252.748 215.08 153.874C297.313 54.9443 406.674 0.460938 522.997 0.460938C639.32 0.460938 748.68 54.9443 830.914 153.855C913.11 252.729 958.384 384.178 958.384 523.979C958.384 663.781 913.11 795.23 830.914 894.104C748.68 993.033 639.32 1047.5 522.997 1047.5V1047.52ZM522.997 2.31285C283.944 2.31285 89.4611 236.34 89.4611 523.979C89.4611 811.619 283.944 1045.65 522.997 1045.65C762.05 1045.65 956.532 811.619 956.532 523.979C956.532 236.34 762.05 2.31285 522.997 2.31285Z" fill="url(#paint18_linear_481_85)"/>
<path d="M523.003 1047.98C423.901 1047.98 330.761 993.405 260.748 894.328C190.829 795.38 152.332 663.875 152.332 524C152.332 384.125 190.829 252.602 260.748 153.672C330.761 54.576 423.901 0 523.003 0C622.105 0 715.245 54.576 785.257 153.654C855.177 252.583 893.674 384.106 893.674 523.981C893.674 663.857 855.177 795.38 785.257 894.309C715.245 993.387 622.105 1047.96 523.003 1047.96V1047.98ZM523.003 2.77788C320.132 2.77788 155.091 236.601 155.091 523.981C155.091 811.362 320.132 1045.19 523.003 1045.19C725.874 1045.19 890.915 811.362 890.915 523.981C890.915 236.601 725.874 2.77788 523.003 2.77788Z" fill="url(#paint19_linear_481_85)"/>
<path d="M522.997 1047.98C445.652 1047.98 373.029 993.331 318.497 894.087C264.15 795.195 234.227 663.764 234.227 523.982C234.227 384.199 264.15 252.768 318.497 153.876C373.029 54.6501 445.652 0 522.997 0C600.342 0 672.966 54.6501 727.498 153.894C781.845 252.787 811.768 384.217 811.768 524C811.768 663.783 781.845 795.213 727.498 894.106C672.966 993.35 600.342 1048 522.997 1048V1047.98ZM522.997 3.70383C365.808 3.70383 237.93 237.101 237.93 524C237.93 810.899 365.808 1044.3 522.997 1044.3C680.187 1044.3 808.065 810.899 808.065 524C808.065 237.101 680.187 3.70383 522.997 3.70383Z" fill="url(#paint20_linear_481_85)"/>
<path d="M522.997 1047.98C468.261 1047.98 417.025 993.128 378.732 893.55C340.773 794.787 319.867 663.56 319.867 524C319.867 384.44 340.773 253.213 378.732 154.45C417.025 54.8538 468.261 0 522.997 0C577.733 0 628.969 54.8538 667.262 154.431C705.222 253.194 726.128 384.421 726.128 523.981C726.128 663.542 705.222 794.769 667.262 893.531C628.988 993.128 577.752 1047.96 522.997 1047.96V1047.98ZM522.997 5.53723C414.063 5.53723 325.422 238.12 325.422 523.981C325.422 809.843 414.063 1042.43 522.997 1042.43C631.932 1042.43 720.572 809.843 720.572 523.981C720.572 238.12 631.951 5.53723 522.997 5.53723Z" fill="url(#paint21_linear_481_85)"/>
<path d="M522.987 1048C485.157 1048 460.474 963.516 446.42 892.624C426.903 794.121 416.145 663.209 416.145 524C416.145 384.791 426.903 253.879 446.42 155.376C460.474 84.503 485.157 0 522.987 0C560.817 0 585.5 84.4845 599.554 155.376C619.071 253.879 629.829 384.791 629.829 524C629.829 663.209 619.071 794.121 599.554 892.624C585.5 963.497 560.817 1048 522.987 1048ZM522.987 7.38915C497.785 7.38915 472.528 61.854 453.697 156.802C434.254 254.842 423.551 385.254 423.551 524C423.551 662.746 434.254 793.158 453.697 891.198C472.51 986.164 497.767 1040.61 522.987 1040.61C548.207 1040.61 573.445 986.146 592.277 891.198C611.72 793.158 622.423 662.746 622.423 524C622.423 385.254 611.72 254.842 592.277 156.802C573.464 61.854 548.207 7.38915 522.987 7.38915Z" fill="url(#paint22_linear_481_85)"/>
<path d="M527.626 1.83984H518.367V1046.12H527.626V1.83984Z" fill="url(#paint23_linear_481_85)"/>
</g>
<defs>
<linearGradient id="paint0_linear_481_85" x1="522.999" y1="10.1133" x2="522.999" y2="11.9652" gradientUnits="userSpaceOnUse">
<stop offset="0.197115" stop-color="#1FBCD7"/>
<stop offset="0.504808" stop-color="#FEB449"/>
<stop offset="1" stop-color="#FE5C36"/>
</linearGradient>
<linearGradient id="paint1_linear_481_85" x1="522.981" y1="39.4102" x2="522.981" y2="41.2621" gradientUnits="userSpaceOnUse">
<stop offset="0.197115" stop-color="#1FBCD7"/>
<stop offset="0.504808" stop-color="#FEB449"/>
<stop offset="1" stop-color="#FE5C36"/>
</linearGradient>
<linearGradient id="paint2_linear_481_85" x1="522.999" y1="87.8828" x2="522.999" y2="89.7347" gradientUnits="userSpaceOnUse">
<stop offset="0.197115" stop-color="#1FBCD7"/>
<stop offset="0.504808" stop-color="#FEB449"/>
<stop offset="1" stop-color="#FE5C36"/>
</linearGradient>
<linearGradient id="paint3_linear_481_85" x1="523.01" y1="153.695" x2="523.01" y2="155.547" gradientUnits="userSpaceOnUse">
<stop offset="0.197115" stop-color="#1FBCD7"/>
<stop offset="0.504808" stop-color="#FEB449"/>
<stop offset="1" stop-color="#FE5C36"/>
</linearGradient>
<linearGradient id="paint4_linear_481_85" x1="522.997" y1="232.383" x2="522.997" y2="234.235" gradientUnits="userSpaceOnUse">
<stop offset="0.197115" stop-color="#1FBCD7"/>
<stop offset="0.504808" stop-color="#FEB449"/>
<stop offset="1" stop-color="#FE5C36"/>
</linearGradient>
<linearGradient id="paint5_linear_481_85" x1="522.991" y1="323.75" x2="522.991" y2="325.602" gradientUnits="userSpaceOnUse">
<stop offset="0.197115" stop-color="#1FBCD7"/>
<stop offset="0.504808" stop-color="#FEB449"/>
<stop offset="1" stop-color="#FE5C36"/>
</linearGradient>
<linearGradient id="paint6_linear_481_85" x1="523.005" y1="421.945" x2="523.005" y2="423.797" gradientUnits="userSpaceOnUse">
<stop offset="0.197115" stop-color="#1FBCD7"/>
<stop offset="0.504808" stop-color="#FEB449"/>
<stop offset="1" stop-color="#FE5C36"/>
</linearGradient>
<linearGradient id="paint7_linear_481_85" x1="523.006" y1="523.102" x2="523.006" y2="524.953" gradientUnits="userSpaceOnUse">
<stop offset="0.197115" stop-color="#1FBCD7"/>
<stop offset="0.504808" stop-color="#FEB449"/>
<stop offset="1" stop-color="#FE5C36"/>
</linearGradient>
<linearGradient id="paint8_linear_481_85" x1="522.995" y1="1036.09" x2="522.995" y2="1037.94" gradientUnits="userSpaceOnUse">
<stop offset="0.197115" stop-color="#1FBCD7"/>
<stop offset="0.504808" stop-color="#FEB449"/>
<stop offset="1" stop-color="#FE5C36"/>
</linearGradient>
<linearGradient id="paint9_linear_481_85" x1="523.009" y1="1006.79" x2="523.009" y2="1008.64" gradientUnits="userSpaceOnUse">
<stop offset="0.197115" stop-color="#1FBCD7"/>
<stop offset="0.504808" stop-color="#FEB449"/>
<stop offset="1" stop-color="#FE5C36"/>
</linearGradient>
<linearGradient id="paint10_linear_481_85" x1="522.991" y1="958.312" x2="522.991" y2="960.164" gradientUnits="userSpaceOnUse">
<stop offset="0.197115" stop-color="#1FBCD7"/>
<stop offset="0.504808" stop-color="#FEB449"/>
<stop offset="1" stop-color="#FE5C36"/>
</linearGradient>
<linearGradient id="paint11_linear_481_85" x1="523.002" y1="892.5" x2="523.002" y2="894.352" gradientUnits="userSpaceOnUse">
<stop offset="0.197115" stop-color="#1FBCD7"/>
<stop offset="0.504808" stop-color="#FEB449"/>
<stop offset="1" stop-color="#FE5C36"/>
</linearGradient>
<linearGradient id="paint12_linear_481_85" x1="522.993" y1="813.812" x2="522.993" y2="815.664" gradientUnits="userSpaceOnUse">
<stop offset="0.197115" stop-color="#1FBCD7"/>
<stop offset="0.504808" stop-color="#FEB449"/>
<stop offset="1" stop-color="#FE5C36"/>
</linearGradient>
<linearGradient id="paint13_linear_481_85" x1="523.019" y1="722.516" x2="523.019" y2="724.368" gradientUnits="userSpaceOnUse">
<stop offset="0.197115" stop-color="#1FBCD7"/>
<stop offset="0.504808" stop-color="#FEB449"/>
<stop offset="1" stop-color="#FE5C36"/>
</linearGradient>
<linearGradient id="paint14_linear_481_85" x1="522.997" y1="624.25" x2="522.997" y2="626.102" gradientUnits="userSpaceOnUse">
<stop offset="0.197115" stop-color="#1FBCD7"/>
<stop offset="0.504808" stop-color="#FEB449"/>
<stop offset="1" stop-color="#FE5C36"/>
</linearGradient>
<linearGradient id="paint15_linear_481_85" x1="523" y1="0.917969" x2="523" y2="1047.07" gradientUnits="userSpaceOnUse">
<stop offset="0.197115" stop-color="#1FBCD7"/>
<stop offset="0.504808" stop-color="#FEB449"/>
<stop offset="1" stop-color="#FE5C36"/>
</linearGradient>
<linearGradient id="paint16_linear_481_85" x1="522.976" y1="0.917969" x2="522.976" y2="1047.07" gradientUnits="userSpaceOnUse">
<stop offset="0.197115" stop-color="#1FBCD7"/>
<stop offset="0.504808" stop-color="#FEB449"/>
<stop offset="1" stop-color="#FE5C36"/>
</linearGradient>
<linearGradient id="paint17_linear_481_85" x1="522.997" y1="0.917969" x2="522.997" y2="1047.05" gradientUnits="userSpaceOnUse">
<stop offset="0.197115" stop-color="#1FBCD7"/>
<stop offset="0.504808" stop-color="#FEB449"/>
<stop offset="1" stop-color="#FE5C36"/>
</linearGradient>
<linearGradient id="paint18_linear_481_85" x1="522.997" y1="0.460937" x2="522.997" y2="1047.52" gradientUnits="userSpaceOnUse">
<stop offset="0.197115" stop-color="#1FBCD7"/>
<stop offset="0.504808" stop-color="#FEB449"/>
<stop offset="1" stop-color="#FE5C36"/>
</linearGradient>
<linearGradient id="paint19_linear_481_85" x1="523.003" y1="0" x2="523.003" y2="1047.98" gradientUnits="userSpaceOnUse">
<stop offset="0.197115" stop-color="#1FBCD7"/>
<stop offset="0.504808" stop-color="#FEB449"/>
<stop offset="1" stop-color="#FE5C36"/>
</linearGradient>
<linearGradient id="paint20_linear_481_85" x1="522.997" y1="0" x2="522.997" y2="1048" gradientUnits="userSpaceOnUse">
<stop offset="0.197115" stop-color="#1FBCD7"/>
<stop offset="0.504808" stop-color="#FEB449"/>
<stop offset="1" stop-color="#FE5C36"/>
</linearGradient>
<linearGradient id="paint21_linear_481_85" x1="522.997" y1="0" x2="522.997" y2="1047.98" gradientUnits="userSpaceOnUse">
<stop offset="0.197115" stop-color="#1FBCD7"/>
<stop offset="0.504808" stop-color="#FEB449"/>
<stop offset="1" stop-color="#FE5C36"/>
</linearGradient>
<linearGradient id="paint22_linear_481_85" x1="522.987" y1="0" x2="522.987" y2="1048" gradientUnits="userSpaceOnUse">
<stop offset="0.197115" stop-color="#1FBCD7"/>
<stop offset="0.504808" stop-color="#FEB449"/>
<stop offset="1" stop-color="#FE5C36"/>
</linearGradient>
<linearGradient id="paint23_linear_481_85" x1="522.996" y1="1.83984" x2="522.996" y2="1046.12" gradientUnits="userSpaceOnUse">
<stop offset="0.197115" stop-color="#1FBCD7"/>
<stop offset="0.504808" stop-color="#FEB449"/>
<stop offset="1" stop-color="#FE5C36"/>
</linearGradient>
</defs>
</svg>
