<svg width="1920" height="1429" viewBox="0 0 1920 1429" fill="none" xmlns="http://www.w3.org/2000/svg">
<g opacity="0.12">
<path d="M21.2896 139.425L21.7685 283.159L21.9903 426.893L22.4221 714.348L22.3172 1001.8L22.2588 1145.54L21.9552 1289.27C21.9552 1289.98 21.383 1290.56 20.6707 1290.54C19.9701 1290.54 19.3982 1289.97 19.3982 1289.27L18.9193 1145.54L18.6975 1001.8L18.2656 714.348L18.3705 426.893L18.429 283.159L18.7326 139.425C18.7326 138.713 19.3048 138.141 20.0171 138.141C20.7176 138.141 21.2896 138.713 21.2896 139.413V139.425Z" fill="url(#paint0_linear_385_29342)"/>
<path d="M73.4477 166.719L73.9733 303.61L74.2302 440.502L74.7322 714.297L74.6387 988.092L74.5805 1124.98L74.2536 1261.87C74.2536 1262.45 73.7864 1262.9 73.2142 1262.9C72.6421 1262.9 72.1868 1262.45 72.1868 1261.87L71.6615 1124.98L71.4043 988.092L70.9023 714.297L70.9958 440.502L71.0543 303.61L71.3813 166.719C71.3813 166.147 71.8482 165.691 72.4203 165.691C72.9924 165.691 73.4477 166.147 73.4477 166.719Z" fill="url(#paint1_linear_385_29342)"/>
<path d="M125.625 194.017L126.197 324.078L126.478 454.139L127.026 714.26L126.945 974.383L126.898 1104.44L126.559 1234.5C126.559 1234.95 126.197 1235.31 125.754 1235.31C125.31 1235.31 124.948 1234.95 124.948 1234.5L124.376 1104.44L124.096 974.383L123.547 714.26L123.629 454.139L123.675 324.078L124.014 194.017C124.014 193.573 124.376 193.211 124.819 193.211C125.263 193.211 125.625 193.573 125.625 194.017Z" fill="url(#paint2_linear_385_29342)"/>
<path d="M177.857 221.318L178.465 344.549L178.768 467.779L179.364 714.24L179.305 960.701L179.27 1083.93L178.932 1207.16C178.932 1207.5 178.663 1207.77 178.324 1207.77C177.986 1207.77 177.717 1207.5 177.717 1207.16L177.11 1083.93L176.806 960.701L176.211 714.24L176.269 467.779L176.304 344.549L176.643 221.318C176.643 220.979 176.912 220.711 177.25 220.711C177.589 220.711 177.857 220.979 177.857 221.318Z" fill="url(#paint3_linear_385_29342)"/>
<path d="M230.101 248.608L230.732 365.008L231.059 481.408L231.689 714.196L231.665 946.984L231.642 1063.38L231.315 1179.78C231.315 1180.03 231.117 1180.22 230.883 1180.22C230.65 1180.22 230.451 1180.02 230.451 1179.78L229.821 1063.4L229.494 946.995L228.863 714.207L228.887 481.419L228.91 365.019L229.237 248.62C229.237 248.374 229.435 248.188 229.669 248.188C229.902 248.188 230.101 248.386 230.101 248.62V248.608Z" fill="url(#paint4_linear_385_29342)"/>
<path d="M282.368 275.901L282.998 385.459L283.337 495.017L283.991 714.143V933.27V1042.83L283.687 1152.39C283.687 1152.55 283.559 1152.68 283.395 1152.68C283.232 1152.68 283.115 1152.55 283.103 1152.4L282.473 1042.84L282.134 933.282L281.48 714.155V495.028V385.471L281.784 275.913C281.784 275.75 281.913 275.621 282.076 275.621C282.239 275.621 282.356 275.75 282.368 275.901Z" fill="url(#paint5_linear_385_29342)"/>
<path d="M334.662 303.203L335.292 405.93L335.631 508.657L336.308 714.111L336.367 919.565L336.39 1022.29L336.133 1125.02C336.133 1125.11 336.063 1125.18 335.97 1125.18C335.876 1125.18 335.806 1125.11 335.806 1125.02L335.176 1022.29L334.837 919.565L334.16 714.111L334.102 508.657L334.078 405.93L334.335 303.203C334.335 303.109 334.405 303.039 334.498 303.039C334.592 303.039 334.662 303.109 334.662 303.203Z" fill="url(#paint6_linear_385_29342)"/>
<path d="M386.975 330.5L387.582 426.396L387.933 522.293L388.61 714.086L388.726 905.879L388.773 1001.78L388.563 1097.67C388.563 1097.67 388.528 1097.74 388.493 1097.74C388.458 1097.74 388.423 1097.71 388.423 1097.67L387.816 1001.78L387.466 905.879L386.788 714.086L386.671 522.293L386.625 426.396L386.835 330.5C386.835 330.5 386.87 330.43 386.905 330.43C386.94 330.43 386.975 330.465 386.975 330.5Z" fill="url(#paint7_linear_385_29342)"/>
<path d="M439.316 357.809L439.9 446.875L440.25 535.929L440.927 714.049L441.114 892.181L441.196 981.235L441.055 1070.3L440.472 981.235L440.121 892.181L439.444 714.061L439.257 535.929L439.176 446.875L439.316 357.809Z" fill="url(#paint8_linear_385_29342)"/>
<path d="M-240.725 0.328125L439.311 357.806L-243.422 5.51235L-240.725 0.328125Z" fill="url(#paint9_linear_385_29342)"/>
<path d="M-240.992 158.34L439.498 436.969L-243.176 163.758L-240.992 158.34Z" fill="url(#paint10_linear_385_29342)"/>
<path d="M-241.256 316.398L439.702 516.155L-242.879 322.003L-241.256 316.398Z" fill="url(#paint11_linear_385_29342)"/>
<path d="M-241.582 474.422L439.89 595.294L-242.574 480.178L-241.582 474.422Z" fill="url(#paint12_linear_385_29342)"/>
<path d="M-241.904 632.539L440.082 674.48L-242.242 638.366L-241.904 632.539Z" fill="url(#paint13_linear_385_29342)"/>
<path d="M-242.242 790.662L440.28 753.648L-241.904 796.488L-242.242 790.662Z" fill="url(#paint14_linear_385_29342)"/>
<path d="M-242.574 948.827L440.474 832.812L-241.57 954.583L-242.574 948.827Z" fill="url(#paint15_linear_385_29342)"/>
<path d="M-242.879 1107.02L440.671 911.969L-241.256 1112.64L-242.879 1107.02Z" fill="url(#paint16_linear_385_29342)"/>
<path d="M-243.176 1265.27L440.853 991.145L-240.981 1270.67L-243.176 1265.27Z" fill="url(#paint17_linear_385_29342)"/>
<path d="M-243.422 1423.52L441.051 1070.31L-240.725 1428.69L-243.422 1423.52Z" fill="url(#paint18_linear_385_29342)"/>
<path d="M240.275 1429C238.663 1429 237.355 1427.69 237.355 1426.08V2.91905C237.355 1.30773 238.663 0 240.275 0C241.886 0 243.194 1.30773 243.194 2.91905V1426.08C243.194 1427.69 241.886 1429 240.275 1429Z" fill="url(#paint19_linear_385_29342)"/>
<path d="M274.004 30.2174L274.261 714.465L274.086 1398.71C274.086 1400.11 272.954 1401.26 271.541 1401.25C270.14 1401.25 268.995 1400.11 269.007 1398.71L268.75 714.465L268.925 30.2174C268.925 28.8163 270.058 27.672 271.471 27.6837C272.872 27.6837 274.016 28.8163 274.004 30.2174Z" fill="url(#paint20_linear_385_29342)"/>
<path d="M304.835 57.5116L305.313 714.425L304.998 1371.34C304.998 1372.54 304.017 1373.52 302.815 1373.52C301.612 1373.52 300.631 1372.54 300.631 1371.34L300.152 714.425L300.468 57.5116C300.468 56.3089 301.448 55.3281 302.651 55.3281C303.854 55.3281 304.835 56.3089 304.835 57.5116Z" fill="url(#paint21_linear_385_29342)"/>
<path d="M335.684 84.8057L336.116 399.596L336.361 714.385L336.233 1029.18L335.918 1343.96C335.918 1344.99 335.089 1345.82 334.061 1345.82C333.034 1345.82 332.205 1344.99 332.205 1343.96L331.773 1029.18L331.527 714.385L331.656 399.596L331.971 84.8057C331.971 83.7782 332.8 82.9492 333.828 82.9492C334.855 82.9492 335.684 83.7782 335.684 84.8057Z" fill="url(#paint22_linear_385_29342)"/>
<path d="M366.576 112.123L366.95 262.688L367.113 413.252L367.429 714.381L367.277 1015.51L367.195 1166.07L366.892 1316.64C366.892 1317.5 366.191 1318.19 365.327 1318.19C364.463 1318.19 363.774 1317.5 363.774 1316.64L363.4 1166.07L363.237 1015.51L362.922 714.381L363.074 413.252L363.155 262.688L363.459 112.123C363.459 111.259 364.16 110.57 365.024 110.57C365.888 110.57 366.576 111.259 366.576 112.123Z" fill="url(#paint23_linear_385_29342)"/>
<path d="M397.492 139.414L397.936 283.147L398.123 426.881L398.497 714.337L398.322 1001.79L398.228 1145.53L397.889 1289.26C397.889 1289.97 397.317 1290.54 396.605 1290.53C395.904 1290.53 395.332 1289.96 395.332 1289.26L394.889 1145.53L394.702 1001.79L394.328 714.337L394.503 426.881L394.597 283.147L394.935 139.414C394.935 138.701 395.508 138.129 396.22 138.141C396.92 138.141 397.492 138.713 397.492 139.414Z" fill="url(#paint24_linear_385_29342)"/>
<path d="M428.427 166.719L428.918 303.61L429.128 440.502L429.549 714.297L429.373 988.092L429.28 1124.98L428.906 1261.87C428.906 1262.45 428.439 1262.9 427.867 1262.9C427.295 1262.9 426.84 1262.45 426.84 1261.87L426.349 1124.98L426.139 988.092L425.719 714.297L425.894 440.502L425.987 303.61L426.361 166.719C426.361 166.147 426.828 165.691 427.4 165.691C427.972 165.691 428.427 166.147 428.427 166.719Z" fill="url(#paint25_linear_385_29342)"/>
<path d="M459.398 194.017L459.924 324.078L460.157 454.139L460.612 714.26L460.437 974.383L460.344 1104.44L459.958 1234.5C459.958 1234.95 459.596 1235.31 459.153 1235.31C458.709 1235.31 458.347 1234.95 458.347 1234.5L457.822 1104.44L457.588 974.383L457.133 714.26L457.308 454.139L457.401 324.078L457.787 194.017C457.787 193.573 458.149 193.211 458.592 193.211C459.036 193.211 459.398 193.573 459.398 194.017Z" fill="url(#paint26_linear_385_29342)"/>
<path d="M490.368 221.318L490.917 344.549L491.162 467.779L491.653 714.24L491.489 960.701L491.396 1083.93L490.999 1207.16C490.999 1207.5 490.73 1207.77 490.391 1207.77C490.053 1207.77 489.784 1207.5 489.784 1207.16L489.235 1083.93L488.99 960.701L488.5 714.24L488.663 467.779L488.757 344.549L489.154 221.318C489.154 220.979 489.422 220.711 489.761 220.711C490.099 220.711 490.368 220.979 490.368 221.318Z" fill="url(#paint27_linear_385_29342)"/>
<path d="M521.381 248.62L521.942 365.019L522.199 481.419L522.701 714.207L522.549 946.995L522.467 1063.4L522.082 1179.79C522.082 1180.04 521.883 1180.23 521.65 1180.23C521.416 1180.23 521.218 1180.03 521.218 1179.79L520.646 1063.4L520.389 946.995L519.887 714.207L520.039 481.419L520.12 365.019L520.506 248.62C520.506 248.374 520.704 248.188 520.937 248.188C521.171 248.188 521.37 248.386 521.37 248.62H521.381Z" fill="url(#paint28_linear_385_29342)"/>
<path d="M552.418 275.901L552.99 385.459L553.258 495.017L553.784 714.143L553.655 933.27L553.585 1042.83L553.212 1152.39C553.212 1152.55 553.083 1152.68 552.92 1152.68C552.756 1152.68 552.639 1152.55 552.628 1152.4L552.056 1042.84L551.787 933.282L551.262 714.155L551.39 495.028L551.46 385.471L551.834 275.913C551.834 275.75 551.962 275.621 552.126 275.621C552.289 275.621 552.406 275.75 552.418 275.901Z" fill="url(#paint29_linear_385_29342)"/>
<path d="M583.493 303.203L584.042 405.93L584.31 508.657L584.836 714.111L584.743 919.565L584.696 1022.29L584.357 1125.02C584.357 1125.11 584.287 1125.18 584.194 1125.18C584.1 1125.18 584.03 1125.11 584.03 1125.02L583.481 1022.29L583.213 919.565L582.688 714.111L582.781 508.657L582.827 405.93L583.166 303.203C583.166 303.109 583.236 303.039 583.33 303.039C583.423 303.039 583.493 303.109 583.493 303.203Z" fill="url(#paint30_linear_385_29342)"/>
<path d="M614.588 330.5L615.114 426.396L615.382 522.293L615.907 714.086L615.861 905.879L615.837 1001.78L615.545 1097.67C615.545 1097.67 615.511 1097.74 615.476 1097.74C615.441 1097.74 615.406 1097.71 615.406 1097.67L614.88 1001.78L614.612 905.879L614.086 714.086L614.133 522.293L614.156 426.396L614.448 330.5C614.448 330.5 614.483 330.43 614.518 330.43C614.553 330.43 614.588 330.465 614.588 330.5Z" fill="url(#paint31_linear_385_29342)"/>
<path d="M645.679 357.809L646.169 446.875L646.438 535.929L646.94 714.049L646.952 892.181V981.235L646.718 1070.3L646.216 981.235L645.959 892.181L645.457 714.061L645.445 535.929V446.875L645.679 357.809Z" fill="url(#paint32_linear_385_29342)"/>
<path d="M242.201 0.726562L645.696 357.807L238.348 5.11681L242.201 0.726562Z" fill="url(#paint33_linear_385_29342)"/>
<path d="M241.929 158.633L645.822 436.97L238.637 163.467L241.929 158.633Z" fill="url(#paint34_linear_385_29342)"/>
<path d="M241.557 316.555L645.94 516.136L239.012 321.809L241.557 316.555Z" fill="url(#paint35_linear_385_29342)"/>
<path d="M241.103 474.508L646.059 595.298L239.469 480.112L241.103 474.508Z" fill="url(#paint36_linear_385_29342)"/>
<path d="M240.564 632.539L646.162 674.468L240.004 638.354L240.564 632.539Z" fill="url(#paint37_linear_385_29342)"/>
<path d="M240.004 790.674L646.278 753.648L240.576 796.477L240.004 790.674Z" fill="url(#paint38_linear_385_29342)"/>
<path d="M239.469 948.909L646.397 832.812L241.103 954.502L239.469 948.909Z" fill="url(#paint39_linear_385_29342)"/>
<path d="M239.012 1107.21L646.512 911.969L241.569 1112.45L239.012 1107.21Z" fill="url(#paint40_linear_385_29342)"/>
<path d="M238.637 1265.54L646.628 991.129L241.929 1270.36L238.637 1265.54Z" fill="url(#paint41_linear_385_29342)"/>
<path d="M238.348 1423.9L646.736 1070.31L242.201 1428.29L238.348 1423.9Z" fill="url(#paint42_linear_385_29342)"/>
<path d="M722.607 1429C720.995 1429 719.688 1427.69 719.688 1426.08V2.91905C719.688 1.30773 720.995 0 722.607 0C724.218 0 725.526 1.30773 725.526 2.91905V1426.08C725.526 1427.69 724.218 1429 722.607 1429Z" fill="url(#paint43_linear_385_29342)"/>
<path d="M735.082 30.2174L735.304 714.465L735.106 1398.71C735.106 1400.11 733.973 1401.26 732.56 1401.25C731.159 1401.25 730.015 1400.11 730.026 1398.71L729.805 714.465L730.003 30.2174C730.003 28.8163 731.136 27.672 732.548 27.6837C733.961 27.6954 735.094 28.8163 735.082 30.2174Z" fill="url(#paint44_linear_385_29342)"/>
<path d="M744.702 57.5116L745.122 714.425L744.748 1371.34C744.748 1372.54 743.767 1373.52 742.565 1373.52C741.362 1373.52 740.381 1372.54 740.381 1371.34L739.961 714.425L740.335 57.5116C740.335 56.3089 741.315 55.3281 742.518 55.3281C743.721 55.3281 744.702 56.3089 744.702 57.5116Z" fill="url(#paint45_linear_385_29342)"/>
<path d="M754.356 84.8057L754.741 399.596L754.951 714.385L754.788 1029.18L754.438 1343.96C754.438 1344.99 753.609 1345.82 752.581 1345.82C751.554 1345.82 750.724 1344.99 750.724 1343.96L750.339 1029.18L750.129 714.385L750.293 399.596L750.643 84.8057C750.643 83.7782 751.472 82.9492 752.499 82.9492C753.527 82.9492 754.356 83.7782 754.356 84.8057Z" fill="url(#paint46_linear_385_29342)"/>
<path d="M763.986 112.123L764.337 262.688L764.477 413.252L764.733 714.381L764.523 1015.51L764.418 1166.07L764.091 1316.64C764.091 1317.5 763.391 1318.19 762.527 1318.19C761.663 1318.19 760.974 1317.5 760.974 1316.64L760.623 1166.07L760.483 1015.51L760.227 714.381L760.437 413.252L760.542 262.688L760.869 112.123C760.869 111.259 761.569 110.57 762.433 110.57C763.297 110.57 763.986 111.259 763.986 112.123Z" fill="url(#paint47_linear_385_29342)"/>
<path d="M773.672 139.414L774.08 283.147L774.232 426.881L774.536 714.337L774.302 1001.79L774.174 1145.53L773.8 1289.26C773.8 1289.97 773.228 1290.54 772.516 1290.53C771.815 1290.53 771.243 1289.96 771.243 1289.26L770.834 1145.53L770.682 1001.79L770.379 714.337L770.612 426.881L770.741 283.147L771.114 139.414C771.114 138.701 771.687 138.129 772.399 138.141C773.099 138.141 773.672 138.713 773.672 139.414Z" fill="url(#paint48_linear_385_29342)"/>
<path d="M783.368 166.719L783.824 303.61L783.999 440.502L784.338 714.297L784.081 988.092L783.941 1124.98L783.532 1261.87C783.532 1262.45 783.065 1262.9 782.493 1262.9C781.921 1262.9 781.465 1262.44 781.465 1261.87L781.01 1124.98L780.835 988.092L780.496 714.297L780.753 440.502L780.893 303.61L781.302 166.719C781.302 166.147 781.769 165.691 782.341 165.691C782.913 165.691 783.368 166.158 783.368 166.719Z" fill="url(#paint49_linear_385_29342)"/>
<path d="M793.12 194.017L793.599 324.078L793.786 454.139L794.148 714.26L793.879 974.383L793.739 1104.44L793.307 1234.5C793.307 1234.95 792.945 1235.31 792.501 1235.31C792.058 1235.31 791.696 1234.95 791.696 1234.5L791.217 1104.44L791.03 974.383L790.668 714.26L790.937 454.139L791.077 324.078L791.509 194.017C791.509 193.573 791.871 193.211 792.314 193.211C792.758 193.211 793.12 193.573 793.12 194.017Z" fill="url(#paint50_linear_385_29342)"/>
<path d="M802.864 221.318L803.366 344.549L803.564 467.779L803.938 714.24L803.657 960.701L803.517 1083.93L803.074 1207.16C803.074 1207.5 802.805 1207.77 802.466 1207.77C802.128 1207.77 801.859 1207.5 801.859 1207.16L801.357 1083.93L801.159 960.701L800.785 714.24L801.065 467.779L801.205 344.549L801.649 221.318C801.649 220.979 801.918 220.711 802.256 220.711C802.595 220.711 802.864 220.979 802.864 221.318Z" fill="url(#paint51_linear_385_29342)"/>
<path d="M812.654 248.62L813.156 365.019L813.355 481.419L813.74 714.207L813.471 946.995L813.331 1063.4L812.887 1179.79C812.887 1180.04 812.689 1180.23 812.455 1180.23C812.222 1180.23 812.023 1180.03 812.023 1179.79L811.521 1063.4L811.323 946.995L810.938 714.207L811.206 481.419L811.346 365.019L811.79 248.62C811.79 248.374 811.988 248.188 812.222 248.188C812.456 248.188 812.654 248.386 812.654 248.62Z" fill="url(#paint52_linear_385_29342)"/>
<path d="M822.483 275.901L822.985 385.459L823.184 495.017L823.569 714.143L823.312 933.27L823.172 1042.83L822.74 1152.39C822.74 1152.55 822.612 1152.68 822.448 1152.68C822.285 1152.68 822.168 1152.55 822.156 1152.4L821.654 1042.84L821.456 933.282L821.07 714.155L821.327 495.028L821.467 385.471L821.899 275.913C821.899 275.75 822.028 275.621 822.191 275.621C822.355 275.621 822.471 275.75 822.483 275.901Z" fill="url(#paint53_linear_385_29342)"/>
<path d="M832.297 303.203L832.775 405.93L832.974 508.657L833.347 714.111L833.114 919.565L832.985 1022.29L832.577 1125.02C832.577 1125.11 832.507 1125.18 832.413 1125.18C832.32 1125.18 832.25 1125.11 832.25 1125.02L831.771 1022.29L831.573 919.565L831.199 714.111L831.433 508.657L831.561 405.93L831.97 303.203C831.97 303.109 832.04 303.039 832.133 303.039C832.226 303.039 832.297 303.109 832.297 303.203Z" fill="url(#paint54_linear_385_29342)"/>
<path d="M842.161 330.5L842.605 426.396L842.792 522.293L843.154 714.086L842.943 905.879L842.838 1001.78L842.465 1097.67C842.465 1097.67 842.429 1097.74 842.394 1097.74C842.359 1097.74 842.324 1097.71 842.324 1097.67L841.881 1001.78L841.694 905.879L841.332 714.086L841.542 522.293L841.647 426.396L842.021 330.5C842.021 330.5 842.056 330.43 842.091 330.43C842.126 330.43 842.161 330.465 842.161 330.5Z" fill="url(#paint55_linear_385_29342)"/>
<path d="M852.06 357.809L852.469 446.875L852.633 535.929L852.971 714.049L852.808 892.181L852.714 981.235L852.387 1070.3L851.99 981.235L851.815 892.181L851.488 714.061L851.652 535.929L851.745 446.875L852.06 357.809Z" fill="url(#paint56_linear_385_29342)"/>
<path d="M725.343 1.90234L852.054 357.792L719.855 3.91065L725.343 1.90234Z" fill="url(#paint57_linear_385_29342)"/>
<path d="M725.227 159.812L852.077 436.97L719.949 162.288L725.227 159.812Z" fill="url(#paint58_linear_385_29342)"/>
<path d="M725.041 317.551L852.125 516.116L720.16 320.762L725.041 317.551Z" fill="url(#paint59_linear_385_29342)"/>
<path d="M724.56 475.145L852.158 595.292L720.637 479.465L724.56 475.145Z" fill="url(#paint60_linear_385_29342)"/>
<path d="M723.436 632.633L852.201 674.457L721.754 638.226L723.436 632.633Z" fill="url(#paint61_linear_385_29342)"/>
<path d="M721.734 790.767L852.239 753.625L723.462 796.348L721.734 790.767Z" fill="url(#paint62_linear_385_29342)"/>
<path d="M720.617 949.531L852.267 832.793L724.564 953.84L720.617 949.531Z" fill="url(#paint63_linear_385_29342)"/>
<path d="M720.16 1108.22L852.312 911.969L725.041 1111.43L720.16 1108.22Z" fill="url(#paint64_linear_385_29342)"/>
<path d="M719.949 1266.71L852.334 991.129L725.227 1269.19L719.949 1266.71Z" fill="url(#paint65_linear_385_29342)"/>
<path d="M719.855 1425.08L852.381 1070.29L725.343 1427.08L719.855 1425.08Z" fill="url(#paint66_linear_385_29342)"/>
<path d="M1902.56 139.414L1902.86 283.147L1902.92 426.881L1903.03 714.337L1902.6 1001.79L1902.37 1145.53L1901.9 1289.26C1901.9 1289.97 1901.32 1290.54 1900.61 1290.53C1899.91 1290.53 1899.34 1289.96 1899.34 1289.26L1899.03 1145.53L1898.98 1001.79L1898.87 714.337L1899.3 426.881L1899.53 283.147L1900 139.414C1900 138.701 1900.58 138.129 1901.29 138.141C1901.99 138.141 1902.56 138.713 1902.56 139.425V139.414Z" fill="url(#paint67_linear_385_29342)"/>
<path d="M1849.89 166.719L1850.22 303.61L1850.28 440.502L1850.37 714.297L1849.87 988.092L1849.61 1124.98L1849.08 1261.87C1849.08 1262.45 1848.62 1262.9 1848.05 1262.9C1847.47 1262.9 1847.02 1262.44 1847.02 1261.87L1846.69 1124.98L1846.63 988.092L1846.54 714.297L1847.04 440.502L1847.3 303.61L1847.82 166.719C1847.82 166.147 1848.29 165.691 1848.86 165.691C1849.44 165.691 1849.89 166.158 1849.89 166.719Z" fill="url(#paint68_linear_385_29342)"/>
<path d="M1797.25 194.017L1797.59 324.078L1797.63 454.139L1797.71 714.26L1797.17 974.383L1796.88 1104.44L1796.31 1234.5C1796.31 1234.95 1795.95 1235.31 1795.51 1235.31C1795.06 1235.31 1794.7 1234.95 1794.7 1234.5L1794.36 1104.44L1794.32 974.383L1794.23 714.26L1794.78 454.139L1795.06 324.078L1795.64 194.017C1795.64 193.573 1796 193.211 1796.44 193.211C1796.89 193.211 1797.25 193.573 1797.25 194.017Z" fill="url(#paint69_linear_385_29342)"/>
<path d="M1744.62 221.318L1744.96 344.549L1745 467.779L1745.06 714.24L1744.46 960.701L1744.16 1083.93L1743.55 1207.16C1743.55 1207.5 1743.27 1207.77 1742.94 1207.77C1742.6 1207.77 1742.33 1207.5 1742.33 1207.16L1742 1083.93L1741.96 960.701L1741.9 714.24L1742.5 467.779L1742.8 344.549L1743.41 221.318C1743.41 220.979 1743.69 220.711 1744.02 220.711C1744.35 220.711 1744.62 220.979 1744.62 221.318Z" fill="url(#paint70_linear_385_29342)"/>
<path d="M1692.06 248.612L1692.38 365.012L1692.41 481.411L1692.43 714.199L1691.8 946.987L1691.47 1063.39L1690.84 1179.78C1690.84 1180.02 1690.65 1180.21 1690.41 1180.21C1690.18 1180.21 1689.98 1180.01 1689.98 1179.78L1689.65 1063.38L1689.63 946.976L1689.61 714.188L1690.24 481.4L1690.56 365L1691.19 248.6C1691.19 248.355 1691.39 248.168 1691.63 248.168C1691.86 248.168 1692.06 248.366 1692.06 248.6V248.612Z" fill="url(#paint71_linear_385_29342)"/>
<path d="M1639.5 275.914L1639.8 385.471V495.029V714.156L1639.15 933.283L1638.81 1042.84L1638.18 1152.4C1638.18 1152.56 1638.05 1152.69 1637.88 1152.68C1637.72 1152.68 1637.6 1152.55 1637.6 1152.39L1637.3 1042.83V933.271V714.144L1637.95 495.017L1638.29 385.46L1638.92 275.902C1638.92 275.739 1639.05 275.61 1639.22 275.622C1639.38 275.622 1639.5 275.75 1639.5 275.914Z" fill="url(#paint72_linear_385_29342)"/>
<path d="M1586.94 303.203L1587.2 405.93L1587.18 508.657L1587.12 714.111L1586.44 919.565L1586.1 1022.29L1585.47 1125.02C1585.47 1125.11 1585.4 1125.18 1585.31 1125.18C1585.21 1125.18 1585.14 1125.11 1585.14 1125.02L1584.89 1022.29L1584.91 919.565L1584.97 714.111L1585.65 508.657L1585.98 405.93L1586.61 303.203C1586.61 303.109 1586.68 303.039 1586.78 303.039C1586.87 303.039 1586.94 303.109 1586.94 303.203Z" fill="url(#paint73_linear_385_29342)"/>
<path d="M1534.45 330.5L1534.66 426.396L1534.61 522.293L1534.5 714.086L1533.82 905.879L1533.47 1001.78L1532.86 1097.67C1532.86 1097.67 1532.83 1097.74 1532.79 1097.74C1532.76 1097.74 1532.72 1097.71 1532.72 1097.67L1532.51 1001.78L1532.56 905.879L1532.67 714.086L1533.35 522.293L1533.7 426.396L1534.31 330.5C1534.31 330.5 1534.34 330.43 1534.38 330.43C1534.41 330.43 1534.45 330.465 1534.45 330.5Z" fill="url(#paint74_linear_385_29342)"/>
<path d="M1481.97 357.809L1482.12 446.875L1482.02 535.929L1481.85 714.061L1481.16 892.181L1480.81 981.235L1480.24 1070.3L1480.09 981.235L1480.18 892.181L1480.35 714.049L1481.04 535.929L1481.38 446.875L1481.97 357.809Z" fill="url(#paint75_linear_385_29342)"/>
<path d="M2164.69 5.51235L1481.94 357.806L2161.99 0.328125L2164.69 5.51235Z" fill="url(#paint76_linear_385_29342)"/>
<path d="M2164.44 163.758L1481.76 436.969L2162.24 158.34L2164.44 163.758Z" fill="url(#paint77_linear_385_29342)"/>
<path d="M2164.15 322.003L1481.57 516.155L2162.54 316.398L2164.15 322.003Z" fill="url(#paint78_linear_385_29342)"/>
<path d="M2163.85 480.178L1481.39 595.294L2162.85 474.422L2163.85 480.178Z" fill="url(#paint79_linear_385_29342)"/>
<path d="M2163.5 638.366L1481.18 674.48L2163.18 632.539L2163.5 638.366Z" fill="url(#paint80_linear_385_29342)"/>
<path d="M2163.16 796.488L1480.99 753.648L2163.51 790.662L2163.16 796.488Z" fill="url(#paint81_linear_385_29342)"/>
<path d="M2162.85 954.583L1480.8 832.812L2163.85 948.827L2162.85 954.583Z" fill="url(#paint82_linear_385_29342)"/>
<path d="M2162.53 1112.64L1480.62 911.969L2164.17 1107.02L2162.53 1112.64Z" fill="url(#paint83_linear_385_29342)"/>
<path d="M2162.24 1270.67L1480.41 991.145L2164.44 1265.27L2162.24 1270.67Z" fill="url(#paint84_linear_385_29342)"/>
<path d="M2162.01 1428.69L1480.23 1070.31L2164.71 1423.52L2162.01 1428.69Z" fill="url(#paint85_linear_385_29342)"/>
<path d="M1681.02 1429C1679.41 1429 1678.1 1427.69 1678.1 1426.08V2.91905C1678.1 1.30773 1679.41 0 1681.02 0C1682.63 0 1683.94 1.30773 1683.94 2.91905V1426.08C1683.94 1427.69 1682.63 1429 1681.02 1429Z" fill="url(#paint86_linear_385_29342)"/>
<path d="M1652.37 30.2174L1652.55 714.465L1652.29 1398.71C1652.29 1400.11 1651.16 1401.25 1649.74 1401.25C1648.34 1401.25 1647.2 1400.11 1647.21 1398.71L1647.04 714.465L1647.29 30.2174C1647.29 28.8163 1648.43 27.672 1649.84 27.6837C1651.24 27.6837 1652.37 28.8163 1652.37 30.2174Z" fill="url(#paint87_linear_385_29342)"/>
<path d="M1620.81 57.5116L1621.13 714.425L1620.65 1371.34C1620.65 1372.54 1619.67 1373.52 1618.47 1373.52C1617.26 1373.52 1616.28 1372.54 1616.28 1371.34L1615.97 714.425L1616.45 57.5116C1616.45 56.3089 1617.43 55.3281 1618.63 55.3281C1619.83 55.3281 1620.81 56.3089 1620.81 57.5116Z" fill="url(#paint88_linear_385_29342)"/>
<path d="M1589.3 84.8057L1589.62 399.596L1589.75 714.385L1589.5 1029.18L1589.07 1343.96C1589.07 1344.99 1588.23 1345.82 1587.21 1345.82C1586.19 1345.82 1585.36 1344.99 1585.36 1343.96L1585.04 1029.18L1584.91 714.385L1585.16 399.596L1585.59 84.8057C1585.59 83.7782 1586.42 82.9492 1587.45 82.9492C1588.48 82.9492 1589.3 83.7782 1589.3 84.8057Z" fill="url(#paint89_linear_385_29342)"/>
<path d="M1557.82 112.123L1558.12 262.688L1558.2 413.252L1558.35 714.381L1558.04 1015.51L1557.88 1166.07L1557.5 1316.64C1557.5 1317.5 1556.8 1318.19 1555.94 1318.19C1555.07 1318.19 1554.38 1317.5 1554.38 1316.64L1554.08 1166.07L1554 1015.51L1553.85 714.381L1554.16 413.252L1554.33 262.688L1554.7 112.123C1554.7 111.259 1555.4 110.57 1556.26 110.57C1557.13 110.57 1557.82 111.259 1557.82 112.123Z" fill="url(#paint90_linear_385_29342)"/>
<path d="M1526.36 139.414L1526.7 283.147L1526.79 426.881L1526.97 714.337L1526.6 1001.79L1526.41 1145.53L1525.96 1289.26C1525.96 1289.97 1525.39 1290.54 1524.68 1290.53C1523.98 1290.53 1523.41 1289.96 1523.41 1289.26L1523.07 1145.53L1522.98 1001.79L1522.8 714.337L1523.17 426.881L1523.36 283.147L1523.8 139.414C1523.8 138.701 1524.38 138.129 1525.09 138.141C1525.79 138.141 1526.36 138.713 1526.36 139.414Z" fill="url(#paint91_linear_385_29342)"/>
<path d="M1494.92 166.719L1495.3 303.61L1495.39 440.502L1495.56 714.297L1495.14 988.092L1494.93 1124.98L1494.44 1261.87C1494.44 1262.45 1493.98 1262.9 1493.4 1262.9C1492.83 1262.9 1492.38 1262.44 1492.38 1261.87L1492 1124.98L1491.91 988.092L1491.73 714.297L1492.16 440.502L1492.36 303.61L1492.86 166.719C1492.86 166.147 1493.32 165.691 1493.89 165.691C1494.47 165.691 1494.92 166.158 1494.92 166.719Z" fill="url(#paint92_linear_385_29342)"/>
<path d="M1463.51 194.017L1463.89 324.078L1463.99 454.139L1464.16 714.26L1463.71 974.383L1463.47 1104.44L1462.95 1234.5C1462.95 1234.95 1462.59 1235.31 1462.14 1235.31C1461.7 1235.31 1461.34 1234.95 1461.34 1234.5L1460.95 1104.44L1460.86 974.383L1460.68 714.26L1461.14 454.139L1461.37 324.078L1461.9 194.017C1461.9 193.573 1462.26 193.211 1462.7 193.211C1463.15 193.211 1463.51 193.573 1463.51 194.017Z" fill="url(#paint93_linear_385_29342)"/>
<path d="M1432.12 221.318L1432.51 344.549L1432.61 467.779L1432.77 714.24L1432.28 960.701L1432.03 1083.93L1431.49 1207.16C1431.49 1207.5 1431.21 1207.77 1430.88 1207.77C1430.54 1207.77 1430.27 1207.5 1430.27 1207.16L1429.87 1083.93L1429.78 960.701L1429.62 714.24L1430.11 467.779L1430.35 344.549L1430.9 221.318C1430.9 220.979 1431.18 220.711 1431.51 220.711C1431.85 220.711 1432.12 220.979 1432.12 221.318Z" fill="url(#paint94_linear_385_29342)"/>
<path d="M1400.75 248.62L1401.14 365.019L1401.22 481.419L1401.37 714.207L1400.87 946.995L1400.61 1063.4L1400.04 1179.79C1400.04 1180.04 1399.84 1180.23 1399.61 1180.23C1399.37 1180.23 1399.17 1180.03 1399.17 1179.79L1398.79 1063.4L1398.71 946.995L1398.55 714.207L1399.06 481.419L1399.31 365.019L1399.89 248.62C1399.89 248.374 1400.08 248.188 1400.32 248.188C1400.55 248.188 1400.75 248.386 1400.75 248.62Z" fill="url(#paint95_linear_385_29342)"/>
<path d="M1369.44 275.914L1369.82 385.471L1369.89 495.029L1370.01 714.156L1369.49 933.283L1369.22 1042.84L1368.65 1152.4C1368.65 1152.56 1368.52 1152.69 1368.36 1152.68C1368.19 1152.68 1368.08 1152.55 1368.08 1152.39L1367.7 1042.83L1367.63 933.271L1367.5 714.144L1368.03 495.017L1368.3 385.46L1368.87 275.902C1368.87 275.739 1369 275.61 1369.16 275.622C1369.33 275.622 1369.44 275.75 1369.44 275.914Z" fill="url(#paint96_linear_385_29342)"/>
<path d="M1338.13 303.203L1338.47 405.93L1338.52 508.657L1338.61 714.111L1338.09 919.565L1337.82 1022.29L1337.27 1125.02C1337.27 1125.11 1337.2 1125.18 1337.11 1125.18C1337.01 1125.18 1336.94 1125.11 1336.94 1125.02L1336.61 1022.29L1336.56 919.565L1336.46 714.111L1336.99 508.657L1337.26 405.93L1337.81 303.203C1337.81 303.109 1337.88 303.039 1337.97 303.039C1338.06 303.039 1338.13 303.109 1338.13 303.203Z" fill="url(#paint97_linear_385_29342)"/>
<path d="M1306.85 330.5L1307.14 426.396L1307.16 522.293L1307.21 714.086L1306.68 905.879L1306.41 1001.78L1305.89 1097.67C1305.89 1097.67 1305.85 1097.74 1305.82 1097.74C1305.78 1097.74 1305.75 1097.71 1305.75 1097.67L1305.46 1001.78L1305.43 905.879L1305.39 714.086L1305.91 522.293L1306.18 426.396L1306.71 330.5C1306.71 330.5 1306.74 330.43 1306.78 330.43C1306.81 330.43 1306.85 330.465 1306.85 330.5Z" fill="url(#paint98_linear_385_29342)"/>
<path d="M1275.59 357.809L1275.82 446.875V535.929V714.061L1275.3 892.181L1275.05 981.235L1274.56 1070.3L1274.32 981.235V892.181V714.049L1274.84 535.929L1275.09 446.875L1275.59 357.809Z" fill="url(#paint99_linear_385_29342)"/>
<path d="M1682.93 5.11681L1275.59 357.807L1679.09 0.726562L1682.93 5.11681Z" fill="url(#paint100_linear_385_29342)"/>
<path d="M1682.65 163.467L1275.46 436.97L1679.37 158.633L1682.65 163.467Z" fill="url(#paint101_linear_385_29342)"/>
<path d="M1682.26 321.809L1275.35 516.136L1679.72 316.555L1682.26 321.809Z" fill="url(#paint102_linear_385_29342)"/>
<path d="M1681.82 480.112L1275.24 595.298L1680.18 474.508L1681.82 480.112Z" fill="url(#paint103_linear_385_29342)"/>
<path d="M1681.29 638.354L1275.13 674.468L1680.73 632.539L1681.29 638.354Z" fill="url(#paint104_linear_385_29342)"/>
<path d="M1680.72 796.477L1275.01 753.648L1681.29 790.674L1680.72 796.477Z" fill="url(#paint105_linear_385_29342)"/>
<path d="M1680.18 954.502L1274.89 832.812L1681.83 948.909L1680.18 954.502Z" fill="url(#paint106_linear_385_29342)"/>
<path d="M1679.72 1112.45L1274.78 911.969L1682.28 1107.21L1679.72 1112.45Z" fill="url(#paint107_linear_385_29342)"/>
<path d="M1679.37 1270.36L1274.67 991.129L1682.65 1265.54L1679.37 1270.36Z" fill="url(#paint108_linear_385_29342)"/>
<path d="M1679.09 1428.29L1274.55 1070.31L1682.93 1423.9L1679.09 1428.29Z" fill="url(#paint109_linear_385_29342)"/>
<path d="M1198.67 1429C1197.05 1429 1195.75 1427.69 1195.75 1426.08V2.91905C1195.75 1.30773 1197.05 0 1198.67 0C1200.28 0 1201.58 1.30773 1201.58 2.91905V1426.08C1201.58 1427.69 1200.28 1429 1198.67 1429Z" fill="url(#paint110_linear_385_29342)"/>
<path d="M1191.25 30.2174L1191.45 714.465L1191.23 1398.71C1191.23 1400.11 1190.1 1401.25 1188.69 1401.25C1187.27 1401.25 1186.15 1400.11 1186.15 1398.71L1185.95 714.465L1186.17 30.2174C1186.17 28.8163 1187.31 27.672 1188.72 27.6837C1190.12 27.6837 1191.27 28.8163 1191.25 30.2174Z" fill="url(#paint111_linear_385_29342)"/>
<path d="M1180.95 57.5116L1181.32 714.425L1180.9 1371.34C1180.9 1372.54 1179.92 1373.52 1178.72 1373.52C1177.51 1373.52 1176.53 1372.54 1176.53 1371.34L1176.16 714.425L1176.58 57.5116C1176.58 56.3089 1177.56 55.3281 1178.76 55.3281C1179.97 55.3281 1180.95 56.3089 1180.95 57.5116Z" fill="url(#paint112_linear_385_29342)"/>
<path d="M1170.66 84.8057L1171.01 399.596L1171.17 714.385L1170.96 1029.18L1170.58 1343.96C1170.58 1344.99 1169.75 1345.82 1168.72 1345.82C1167.69 1345.82 1166.87 1344.99 1166.87 1343.96L1166.51 1029.18L1166.35 714.385L1166.56 399.596L1166.95 84.8057C1166.95 83.7782 1167.78 82.9492 1168.8 82.9492C1169.83 82.9492 1170.66 83.7782 1170.66 84.8057Z" fill="url(#paint113_linear_385_29342)"/>
<path d="M1160.38 112.123L1160.71 262.688L1160.82 413.252L1161.03 714.381L1160.77 1015.51L1160.63 1166.07L1160.28 1316.64C1160.28 1317.5 1159.58 1318.19 1158.71 1318.19C1157.85 1318.19 1157.16 1317.5 1157.16 1316.64L1156.83 1166.07L1156.73 1015.51L1156.52 714.381L1156.78 413.252L1156.92 262.688L1157.27 112.123C1157.27 111.259 1157.97 110.57 1158.83 110.57C1159.7 110.57 1160.38 111.259 1160.38 112.123Z" fill="url(#paint114_linear_385_29342)"/>
<path d="M1150.17 139.414L1150.55 283.147L1150.68 426.881L1150.91 714.337L1150.61 1001.79L1150.46 1145.53L1150.05 1289.26C1150.05 1289.97 1149.47 1290.54 1148.76 1290.53C1148.06 1290.53 1147.49 1289.96 1147.49 1289.26L1147.12 1145.53L1146.99 1001.79L1146.75 714.337L1147.06 426.881L1147.21 283.147L1147.62 139.414C1147.62 138.701 1148.19 138.129 1148.9 138.141C1149.6 138.141 1150.17 138.713 1150.17 139.414Z" fill="url(#paint115_linear_385_29342)"/>
<path d="M1139.95 166.719L1140.36 303.61L1140.5 440.502L1140.76 714.297L1140.42 988.092L1140.25 1124.98L1139.79 1261.87C1139.79 1262.45 1139.32 1262.9 1138.75 1262.9C1138.18 1262.9 1137.72 1262.44 1137.72 1261.87L1137.32 1124.98L1137.17 988.092L1136.92 714.297L1137.26 440.502L1137.43 303.61L1137.89 166.719C1137.89 166.147 1138.35 165.691 1138.93 165.691C1139.5 165.691 1139.95 166.158 1139.95 166.719Z" fill="url(#paint116_linear_385_29342)"/>
<path d="M1129.78 194.017L1130.22 324.078L1130.36 454.139L1130.62 714.26L1130.26 974.383L1130.08 1104.44L1129.6 1234.5C1129.6 1234.95 1129.23 1235.31 1128.79 1235.31C1128.35 1235.31 1127.99 1234.95 1127.99 1234.5L1127.55 1104.44L1127.41 974.383L1127.14 714.26L1127.51 454.139L1127.69 324.078L1128.17 194.017C1128.17 193.573 1128.53 193.211 1128.98 193.211C1129.42 193.211 1129.78 193.573 1129.78 194.017Z" fill="url(#paint117_linear_385_29342)"/>
<path d="M1119.62 221.318L1120.06 344.549L1120.2 467.779L1120.48 714.24L1120.11 960.701L1119.91 1083.93L1119.41 1207.16C1119.41 1207.5 1119.13 1207.77 1118.8 1207.77C1118.46 1207.77 1118.2 1207.5 1118.2 1207.16L1117.75 1083.93L1117.61 960.701L1117.33 714.24L1117.71 467.779L1117.9 344.549L1118.41 221.318C1118.41 220.979 1118.69 220.711 1119.01 220.711C1119.35 220.711 1119.62 220.979 1119.62 221.318Z" fill="url(#paint118_linear_385_29342)"/>
<path d="M1109.49 248.62L1109.94 365.019L1110.08 481.419L1110.35 714.207L1109.96 946.995L1109.76 1063.4L1109.26 1179.79C1109.26 1180.04 1109.06 1180.23 1108.83 1180.23C1108.59 1180.23 1108.4 1180.03 1108.4 1179.79L1107.95 1063.4L1107.81 946.995L1107.54 714.207L1107.93 481.419L1108.13 365.019L1108.63 248.62C1108.63 248.374 1108.83 248.188 1109.06 248.188C1109.29 248.188 1109.49 248.386 1109.49 248.62Z" fill="url(#paint119_linear_385_29342)"/>
<path d="M1099.39 275.914L1099.82 385.471L1099.96 495.029L1100.22 714.156L1099.83 933.283L1099.63 1042.84L1099.13 1152.4C1099.13 1152.56 1099 1152.69 1098.84 1152.68C1098.68 1152.68 1098.56 1152.55 1098.55 1152.39L1098.12 1042.83L1097.98 933.271L1097.72 714.144L1098.1 495.017L1098.3 385.46L1098.8 275.902C1098.8 275.739 1098.93 275.61 1099.1 275.622C1099.26 275.622 1099.38 275.75 1099.39 275.914Z" fill="url(#paint120_linear_385_29342)"/>
<path d="M1089.31 303.203L1089.72 405.93L1089.84 508.657L1090.08 714.111L1089.7 919.565L1089.51 1022.29L1089.03 1125.02C1089.03 1125.11 1088.96 1125.18 1088.86 1125.18C1088.77 1125.18 1088.7 1125.11 1088.7 1125.02L1088.29 1022.29L1088.16 919.565L1087.93 714.111L1088.3 508.657L1088.5 405.93L1088.98 303.203C1088.98 303.109 1089.05 303.039 1089.14 303.039C1089.24 303.039 1089.31 303.109 1089.31 303.203Z" fill="url(#paint121_linear_385_29342)"/>
<path d="M1079.25 330.5L1079.62 426.396L1079.72 522.293L1079.93 714.086L1079.57 905.879L1079.39 1001.78L1078.94 1097.67C1078.94 1097.67 1078.91 1097.74 1078.87 1097.74C1078.84 1097.74 1078.8 1097.71 1078.8 1097.67L1078.43 1001.78L1078.32 905.879L1078.11 714.086L1078.48 522.293L1078.66 426.396L1079.11 330.5C1079.11 330.5 1079.14 330.43 1079.18 330.43C1079.21 330.43 1079.25 330.465 1079.25 330.5Z" fill="url(#paint122_linear_385_29342)"/>
<path d="M1069.22 357.809L1069.55 446.875L1069.64 535.929L1069.8 714.061L1069.46 892.181L1069.3 981.235L1068.89 1070.3L1068.58 981.235L1068.48 892.181L1068.32 714.049L1068.65 535.929L1068.82 446.875L1069.22 357.809Z" fill="url(#paint123_linear_385_29342)"/>
<path d="M1201.42 3.91065L1069.23 357.792L1195.95 1.90234L1201.42 3.91065Z" fill="url(#paint124_linear_385_29342)"/>
<path d="M1201.32 162.288L1069.18 436.97L1196.03 159.812L1201.32 162.288Z" fill="url(#paint125_linear_385_29342)"/>
<path d="M1201.11 320.762L1069.15 516.116L1196.24 317.551L1201.11 320.762Z" fill="url(#paint126_linear_385_29342)"/>
<path d="M1200.65 479.465L1069.12 595.292L1196.72 475.145L1200.65 479.465Z" fill="url(#paint127_linear_385_29342)"/>
<path d="M1199.52 638.226L1069.08 674.457L1197.83 632.633L1199.52 638.226Z" fill="url(#paint128_linear_385_29342)"/>
<path d="M1197.82 796.348L1069.04 753.625L1199.54 790.767L1197.82 796.348Z" fill="url(#paint129_linear_385_29342)"/>
<path d="M1196.72 953.84L1069.02 832.793L1200.66 949.531L1196.72 953.84Z" fill="url(#paint130_linear_385_29342)"/>
<path d="M1196.23 1111.43L1068.96 911.969L1201.12 1108.22L1196.23 1111.43Z" fill="url(#paint131_linear_385_29342)"/>
<path d="M1196.05 1269.19L1068.94 991.129L1201.34 1266.71L1196.05 1269.19Z" fill="url(#paint132_linear_385_29342)"/>
<path d="M1195.95 1427.08L1068.9 1070.29L1201.43 1425.08L1195.95 1427.08Z" fill="url(#paint133_linear_385_29342)"/>
<path d="M960.649 2.92578L961.268 47.4004L961.735 91.8749L962.657 180.824C963.136 240.127 963.568 299.419 963.848 358.722C964.222 418.026 964.304 477.317 964.526 536.621L964.748 714.519L964.526 892.417C964.304 951.721 964.222 1011.01 963.848 1070.32C963.568 1129.62 963.136 1188.91 962.657 1248.21L961.735 1337.16L961.268 1381.64L960.649 1426.11L960.03 1381.64L959.563 1337.16L958.641 1248.21C958.162 1188.91 957.73 1129.62 957.45 1070.32C957.076 1011.01 956.994 951.721 956.773 892.417L956.551 714.519L956.773 536.621C956.994 477.317 957.076 418.026 957.45 358.722C957.73 299.419 958.162 240.127 958.641 180.824L959.563 91.8749L960.03 47.4004L960.649 2.92578Z" fill="url(#paint134_linear_385_29342)"/>
</g>
<defs>
<linearGradient id="paint0_linear_385_29342" x1="20.3439" y1="138.141" x2="20.3439" y2="1290.54" gradientUnits="userSpaceOnUse">
<stop offset="0.197115" stop-color="#1FBCD7"/>
<stop offset="0.504808" stop-color="#FEB449"/>
<stop offset="1" stop-color="#FE5C36"/>
</linearGradient>
<linearGradient id="paint1_linear_385_29342" x1="72.8173" y1="165.691" x2="72.8173" y2="1262.9" gradientUnits="userSpaceOnUse">
<stop offset="0.197115" stop-color="#1FBCD7"/>
<stop offset="0.504808" stop-color="#FEB449"/>
<stop offset="1" stop-color="#FE5C36"/>
</linearGradient>
<linearGradient id="paint2_linear_385_29342" x1="125.287" y1="193.211" x2="125.287" y2="1235.31" gradientUnits="userSpaceOnUse">
<stop offset="0.197115" stop-color="#1FBCD7"/>
<stop offset="0.504808" stop-color="#FEB449"/>
<stop offset="1" stop-color="#FE5C36"/>
</linearGradient>
<linearGradient id="paint3_linear_385_29342" x1="177.787" y1="220.711" x2="177.787" y2="1207.77" gradientUnits="userSpaceOnUse">
<stop offset="0.197115" stop-color="#1FBCD7"/>
<stop offset="0.504808" stop-color="#FEB449"/>
<stop offset="1" stop-color="#FE5C36"/>
</linearGradient>
<linearGradient id="paint4_linear_385_29342" x1="230.276" y1="248.187" x2="230.276" y2="1180.22" gradientUnits="userSpaceOnUse">
<stop offset="0.197115" stop-color="#1FBCD7"/>
<stop offset="0.504808" stop-color="#FEB449"/>
<stop offset="1" stop-color="#FE5C36"/>
</linearGradient>
<linearGradient id="paint5_linear_385_29342" x1="282.736" y1="275.621" x2="282.736" y2="1152.68" gradientUnits="userSpaceOnUse">
<stop offset="0.197115" stop-color="#1FBCD7"/>
<stop offset="0.504808" stop-color="#FEB449"/>
<stop offset="1" stop-color="#FE5C36"/>
</linearGradient>
<linearGradient id="paint6_linear_385_29342" x1="335.234" y1="303.039" x2="335.234" y2="1125.18" gradientUnits="userSpaceOnUse">
<stop offset="0.197115" stop-color="#1FBCD7"/>
<stop offset="0.504808" stop-color="#FEB449"/>
<stop offset="1" stop-color="#FE5C36"/>
</linearGradient>
<linearGradient id="paint7_linear_385_29342" x1="387.699" y1="330.43" x2="387.699" y2="1097.74" gradientUnits="userSpaceOnUse">
<stop offset="0.197115" stop-color="#1FBCD7"/>
<stop offset="0.504808" stop-color="#FEB449"/>
<stop offset="1" stop-color="#FE5C36"/>
</linearGradient>
<linearGradient id="paint8_linear_385_29342" x1="440.186" y1="357.809" x2="440.186" y2="1070.3" gradientUnits="userSpaceOnUse">
<stop offset="0.197115" stop-color="#1FBCD7"/>
<stop offset="0.504808" stop-color="#FEB449"/>
<stop offset="1" stop-color="#FE5C36"/>
</linearGradient>
<linearGradient id="paint9_linear_385_29342" x1="97.9444" y1="0.328125" x2="97.9444" y2="357.806" gradientUnits="userSpaceOnUse">
<stop offset="0.197115" stop-color="#1FBCD7"/>
<stop offset="0.504808" stop-color="#FEB449"/>
<stop offset="1" stop-color="#FE5C36"/>
</linearGradient>
<linearGradient id="paint10_linear_385_29342" x1="98.1613" y1="158.34" x2="98.1613" y2="436.969" gradientUnits="userSpaceOnUse">
<stop offset="0.197115" stop-color="#1FBCD7"/>
<stop offset="0.504808" stop-color="#FEB449"/>
<stop offset="1" stop-color="#FE5C36"/>
</linearGradient>
<linearGradient id="paint11_linear_385_29342" x1="98.4116" y1="316.398" x2="98.4116" y2="516.155" gradientUnits="userSpaceOnUse">
<stop offset="0.197115" stop-color="#1FBCD7"/>
<stop offset="0.504808" stop-color="#FEB449"/>
<stop offset="1" stop-color="#FE5C36"/>
</linearGradient>
<linearGradient id="paint12_linear_385_29342" x1="98.6578" y1="474.422" x2="98.6578" y2="595.294" gradientUnits="userSpaceOnUse">
<stop offset="0.197115" stop-color="#1FBCD7"/>
<stop offset="0.504808" stop-color="#FEB449"/>
<stop offset="1" stop-color="#FE5C36"/>
</linearGradient>
<linearGradient id="paint13_linear_385_29342" x1="98.9197" y1="632.539" x2="98.9197" y2="674.48" gradientUnits="userSpaceOnUse">
<stop offset="0.197115" stop-color="#1FBCD7"/>
<stop offset="0.504808" stop-color="#FEB449"/>
<stop offset="1" stop-color="#FE5C36"/>
</linearGradient>
<linearGradient id="paint14_linear_385_29342" x1="99.0191" y1="753.648" x2="99.0191" y2="796.488" gradientUnits="userSpaceOnUse">
<stop offset="0.197115" stop-color="#1FBCD7"/>
<stop offset="0.504808" stop-color="#FEB449"/>
<stop offset="1" stop-color="#FE5C36"/>
</linearGradient>
<linearGradient id="paint15_linear_385_29342" x1="98.9497" y1="832.812" x2="98.9497" y2="954.583" gradientUnits="userSpaceOnUse">
<stop offset="0.197115" stop-color="#1FBCD7"/>
<stop offset="0.504808" stop-color="#FEB449"/>
<stop offset="1" stop-color="#FE5C36"/>
</linearGradient>
<linearGradient id="paint16_linear_385_29342" x1="98.8961" y1="911.969" x2="98.8961" y2="1112.64" gradientUnits="userSpaceOnUse">
<stop offset="0.197115" stop-color="#1FBCD7"/>
<stop offset="0.504808" stop-color="#FEB449"/>
<stop offset="1" stop-color="#FE5C36"/>
</linearGradient>
<linearGradient id="paint17_linear_385_29342" x1="98.8387" y1="991.145" x2="98.8387" y2="1270.67" gradientUnits="userSpaceOnUse">
<stop offset="0.197115" stop-color="#1FBCD7"/>
<stop offset="0.504808" stop-color="#FEB449"/>
<stop offset="1" stop-color="#FE5C36"/>
</linearGradient>
<linearGradient id="paint18_linear_385_29342" x1="98.8144" y1="1070.31" x2="98.8144" y2="1428.69" gradientUnits="userSpaceOnUse">
<stop offset="0.197115" stop-color="#1FBCD7"/>
<stop offset="0.504808" stop-color="#FEB449"/>
<stop offset="1" stop-color="#FE5C36"/>
</linearGradient>
<linearGradient id="paint19_linear_385_29342" x1="240.275" y1="0" x2="240.275" y2="1429" gradientUnits="userSpaceOnUse">
<stop offset="0.197115" stop-color="#1FBCD7"/>
<stop offset="0.504808" stop-color="#FEB449"/>
<stop offset="1" stop-color="#FE5C36"/>
</linearGradient>
<linearGradient id="paint20_linear_385_29342" x1="271.506" y1="27.6836" x2="271.506" y2="1401.25" gradientUnits="userSpaceOnUse">
<stop offset="0.197115" stop-color="#1FBCD7"/>
<stop offset="0.504808" stop-color="#FEB449"/>
<stop offset="1" stop-color="#FE5C36"/>
</linearGradient>
<linearGradient id="paint21_linear_385_29342" x1="302.733" y1="55.3281" x2="302.733" y2="1373.52" gradientUnits="userSpaceOnUse">
<stop offset="0.197115" stop-color="#1FBCD7"/>
<stop offset="0.504808" stop-color="#FEB449"/>
<stop offset="1" stop-color="#FE5C36"/>
</linearGradient>
<linearGradient id="paint22_linear_385_29342" x1="333.944" y1="82.9492" x2="333.944" y2="1345.82" gradientUnits="userSpaceOnUse">
<stop offset="0.197115" stop-color="#1FBCD7"/>
<stop offset="0.504808" stop-color="#FEB449"/>
<stop offset="1" stop-color="#FE5C36"/>
</linearGradient>
<linearGradient id="paint23_linear_385_29342" x1="365.175" y1="110.57" x2="365.175" y2="1318.19" gradientUnits="userSpaceOnUse">
<stop offset="0.197115" stop-color="#1FBCD7"/>
<stop offset="0.504808" stop-color="#FEB449"/>
<stop offset="1" stop-color="#FE5C36"/>
</linearGradient>
<linearGradient id="paint24_linear_385_29342" x1="396.412" y1="138.141" x2="396.412" y2="1290.53" gradientUnits="userSpaceOnUse">
<stop offset="0.197115" stop-color="#1FBCD7"/>
<stop offset="0.504808" stop-color="#FEB449"/>
<stop offset="1" stop-color="#FE5C36"/>
</linearGradient>
<linearGradient id="paint25_linear_385_29342" x1="427.634" y1="165.691" x2="427.634" y2="1262.9" gradientUnits="userSpaceOnUse">
<stop offset="0.197115" stop-color="#1FBCD7"/>
<stop offset="0.504808" stop-color="#FEB449"/>
<stop offset="1" stop-color="#FE5C36"/>
</linearGradient>
<linearGradient id="paint26_linear_385_29342" x1="458.873" y1="193.211" x2="458.873" y2="1235.31" gradientUnits="userSpaceOnUse">
<stop offset="0.197115" stop-color="#1FBCD7"/>
<stop offset="0.504808" stop-color="#FEB449"/>
<stop offset="1" stop-color="#FE5C36"/>
</linearGradient>
<linearGradient id="paint27_linear_385_29342" x1="490.076" y1="220.711" x2="490.076" y2="1207.77" gradientUnits="userSpaceOnUse">
<stop offset="0.197115" stop-color="#1FBCD7"/>
<stop offset="0.504808" stop-color="#FEB449"/>
<stop offset="1" stop-color="#FE5C36"/>
</linearGradient>
<linearGradient id="paint28_linear_385_29342" x1="521.294" y1="248.187" x2="521.294" y2="1180.23" gradientUnits="userSpaceOnUse">
<stop offset="0.197115" stop-color="#1FBCD7"/>
<stop offset="0.504808" stop-color="#FEB449"/>
<stop offset="1" stop-color="#FE5C36"/>
</linearGradient>
<linearGradient id="paint29_linear_385_29342" x1="552.523" y1="275.621" x2="552.523" y2="1152.68" gradientUnits="userSpaceOnUse">
<stop offset="0.197115" stop-color="#1FBCD7"/>
<stop offset="0.504808" stop-color="#FEB449"/>
<stop offset="1" stop-color="#FE5C36"/>
</linearGradient>
<linearGradient id="paint30_linear_385_29342" x1="583.762" y1="303.039" x2="583.762" y2="1125.18" gradientUnits="userSpaceOnUse">
<stop offset="0.197115" stop-color="#1FBCD7"/>
<stop offset="0.504808" stop-color="#FEB449"/>
<stop offset="1" stop-color="#FE5C36"/>
</linearGradient>
<linearGradient id="paint31_linear_385_29342" x1="614.997" y1="330.43" x2="614.997" y2="1097.74" gradientUnits="userSpaceOnUse">
<stop offset="0.197115" stop-color="#1FBCD7"/>
<stop offset="0.504808" stop-color="#FEB449"/>
<stop offset="1" stop-color="#FE5C36"/>
</linearGradient>
<linearGradient id="paint32_linear_385_29342" x1="646.198" y1="357.809" x2="646.198" y2="1070.3" gradientUnits="userSpaceOnUse">
<stop offset="0.197115" stop-color="#1FBCD7"/>
<stop offset="0.504808" stop-color="#FEB449"/>
<stop offset="1" stop-color="#FE5C36"/>
</linearGradient>
<linearGradient id="paint33_linear_385_29342" x1="442.022" y1="0.726562" x2="442.022" y2="357.807" gradientUnits="userSpaceOnUse">
<stop offset="0.197115" stop-color="#1FBCD7"/>
<stop offset="0.504808" stop-color="#FEB449"/>
<stop offset="1" stop-color="#FE5C36"/>
</linearGradient>
<linearGradient id="paint34_linear_385_29342" x1="442.229" y1="158.633" x2="442.229" y2="436.97" gradientUnits="userSpaceOnUse">
<stop offset="0.197115" stop-color="#1FBCD7"/>
<stop offset="0.504808" stop-color="#FEB449"/>
<stop offset="1" stop-color="#FE5C36"/>
</linearGradient>
<linearGradient id="paint35_linear_385_29342" x1="442.476" y1="316.555" x2="442.476" y2="516.136" gradientUnits="userSpaceOnUse">
<stop offset="0.197115" stop-color="#1FBCD7"/>
<stop offset="0.504808" stop-color="#FEB449"/>
<stop offset="1" stop-color="#FE5C36"/>
</linearGradient>
<linearGradient id="paint36_linear_385_29342" x1="442.764" y1="474.508" x2="442.764" y2="595.298" gradientUnits="userSpaceOnUse">
<stop offset="0.197115" stop-color="#1FBCD7"/>
<stop offset="0.504808" stop-color="#FEB449"/>
<stop offset="1" stop-color="#FE5C36"/>
</linearGradient>
<linearGradient id="paint37_linear_385_29342" x1="443.083" y1="632.539" x2="443.083" y2="674.468" gradientUnits="userSpaceOnUse">
<stop offset="0.197115" stop-color="#1FBCD7"/>
<stop offset="0.504808" stop-color="#FEB449"/>
<stop offset="1" stop-color="#FE5C36"/>
</linearGradient>
<linearGradient id="paint38_linear_385_29342" x1="443.141" y1="753.648" x2="443.141" y2="796.477" gradientUnits="userSpaceOnUse">
<stop offset="0.197115" stop-color="#1FBCD7"/>
<stop offset="0.504808" stop-color="#FEB449"/>
<stop offset="1" stop-color="#FE5C36"/>
</linearGradient>
<linearGradient id="paint39_linear_385_29342" x1="442.933" y1="832.812" x2="442.933" y2="954.502" gradientUnits="userSpaceOnUse">
<stop offset="0.197115" stop-color="#1FBCD7"/>
<stop offset="0.504808" stop-color="#FEB449"/>
<stop offset="1" stop-color="#FE5C36"/>
</linearGradient>
<linearGradient id="paint40_linear_385_29342" x1="442.762" y1="911.969" x2="442.762" y2="1112.45" gradientUnits="userSpaceOnUse">
<stop offset="0.197115" stop-color="#1FBCD7"/>
<stop offset="0.504808" stop-color="#FEB449"/>
<stop offset="1" stop-color="#FE5C36"/>
</linearGradient>
<linearGradient id="paint41_linear_385_29342" x1="442.632" y1="991.129" x2="442.632" y2="1270.36" gradientUnits="userSpaceOnUse">
<stop offset="0.197115" stop-color="#1FBCD7"/>
<stop offset="0.504808" stop-color="#FEB449"/>
<stop offset="1" stop-color="#FE5C36"/>
</linearGradient>
<linearGradient id="paint42_linear_385_29342" x1="442.542" y1="1070.31" x2="442.542" y2="1428.29" gradientUnits="userSpaceOnUse">
<stop offset="0.197115" stop-color="#1FBCD7"/>
<stop offset="0.504808" stop-color="#FEB449"/>
<stop offset="1" stop-color="#FE5C36"/>
</linearGradient>
<linearGradient id="paint43_linear_385_29342" x1="722.607" y1="0" x2="722.607" y2="1429" gradientUnits="userSpaceOnUse">
<stop offset="0.197115" stop-color="#1FBCD7"/>
<stop offset="0.504808" stop-color="#FEB449"/>
<stop offset="1" stop-color="#FE5C36"/>
</linearGradient>
<linearGradient id="paint44_linear_385_29342" x1="732.554" y1="27.6836" x2="732.554" y2="1401.25" gradientUnits="userSpaceOnUse">
<stop offset="0.197115" stop-color="#1FBCD7"/>
<stop offset="0.504808" stop-color="#FEB449"/>
<stop offset="1" stop-color="#FE5C36"/>
</linearGradient>
<linearGradient id="paint45_linear_385_29342" x1="742.541" y1="55.3281" x2="742.541" y2="1373.52" gradientUnits="userSpaceOnUse">
<stop offset="0.197115" stop-color="#1FBCD7"/>
<stop offset="0.504808" stop-color="#FEB449"/>
<stop offset="1" stop-color="#FE5C36"/>
</linearGradient>
<linearGradient id="paint46_linear_385_29342" x1="752.54" y1="82.9492" x2="752.54" y2="1345.82" gradientUnits="userSpaceOnUse">
<stop offset="0.197115" stop-color="#1FBCD7"/>
<stop offset="0.504808" stop-color="#FEB449"/>
<stop offset="1" stop-color="#FE5C36"/>
</linearGradient>
<linearGradient id="paint47_linear_385_29342" x1="762.48" y1="110.57" x2="762.48" y2="1318.19" gradientUnits="userSpaceOnUse">
<stop offset="0.197115" stop-color="#1FBCD7"/>
<stop offset="0.504808" stop-color="#FEB449"/>
<stop offset="1" stop-color="#FE5C36"/>
</linearGradient>
<linearGradient id="paint48_linear_385_29342" x1="772.457" y1="138.141" x2="772.457" y2="1290.53" gradientUnits="userSpaceOnUse">
<stop offset="0.197115" stop-color="#1FBCD7"/>
<stop offset="0.504808" stop-color="#FEB449"/>
<stop offset="1" stop-color="#FE5C36"/>
</linearGradient>
<linearGradient id="paint49_linear_385_29342" x1="782.417" y1="165.691" x2="782.417" y2="1262.9" gradientUnits="userSpaceOnUse">
<stop offset="0.197115" stop-color="#1FBCD7"/>
<stop offset="0.504808" stop-color="#FEB449"/>
<stop offset="1" stop-color="#FE5C36"/>
</linearGradient>
<linearGradient id="paint50_linear_385_29342" x1="792.408" y1="193.211" x2="792.408" y2="1235.31" gradientUnits="userSpaceOnUse">
<stop offset="0.197115" stop-color="#1FBCD7"/>
<stop offset="0.504808" stop-color="#FEB449"/>
<stop offset="1" stop-color="#FE5C36"/>
</linearGradient>
<linearGradient id="paint51_linear_385_29342" x1="802.361" y1="220.711" x2="802.361" y2="1207.77" gradientUnits="userSpaceOnUse">
<stop offset="0.197115" stop-color="#1FBCD7"/>
<stop offset="0.504808" stop-color="#FEB449"/>
<stop offset="1" stop-color="#FE5C36"/>
</linearGradient>
<linearGradient id="paint52_linear_385_29342" x1="812.339" y1="248.187" x2="812.339" y2="1180.23" gradientUnits="userSpaceOnUse">
<stop offset="0.197115" stop-color="#1FBCD7"/>
<stop offset="0.504808" stop-color="#FEB449"/>
<stop offset="1" stop-color="#FE5C36"/>
</linearGradient>
<linearGradient id="paint53_linear_385_29342" x1="822.32" y1="275.621" x2="822.32" y2="1152.68" gradientUnits="userSpaceOnUse">
<stop offset="0.197115" stop-color="#1FBCD7"/>
<stop offset="0.504808" stop-color="#FEB449"/>
<stop offset="1" stop-color="#FE5C36"/>
</linearGradient>
<linearGradient id="paint54_linear_385_29342" x1="832.273" y1="303.039" x2="832.273" y2="1125.18" gradientUnits="userSpaceOnUse">
<stop offset="0.197115" stop-color="#1FBCD7"/>
<stop offset="0.504808" stop-color="#FEB449"/>
<stop offset="1" stop-color="#FE5C36"/>
</linearGradient>
<linearGradient id="paint55_linear_385_29342" x1="842.243" y1="330.43" x2="842.243" y2="1097.74" gradientUnits="userSpaceOnUse">
<stop offset="0.197115" stop-color="#1FBCD7"/>
<stop offset="0.504808" stop-color="#FEB449"/>
<stop offset="1" stop-color="#FE5C36"/>
</linearGradient>
<linearGradient id="paint56_linear_385_29342" x1="852.23" y1="357.809" x2="852.23" y2="1070.3" gradientUnits="userSpaceOnUse">
<stop offset="0.197115" stop-color="#1FBCD7"/>
<stop offset="0.504808" stop-color="#FEB449"/>
<stop offset="1" stop-color="#FE5C36"/>
</linearGradient>
<linearGradient id="paint57_linear_385_29342" x1="785.955" y1="1.90234" x2="785.955" y2="357.792" gradientUnits="userSpaceOnUse">
<stop offset="0.197115" stop-color="#1FBCD7"/>
<stop offset="0.504808" stop-color="#FEB449"/>
<stop offset="1" stop-color="#FE5C36"/>
</linearGradient>
<linearGradient id="paint58_linear_385_29342" x1="786.013" y1="159.812" x2="786.013" y2="436.97" gradientUnits="userSpaceOnUse">
<stop offset="0.197115" stop-color="#1FBCD7"/>
<stop offset="0.504808" stop-color="#FEB449"/>
<stop offset="1" stop-color="#FE5C36"/>
</linearGradient>
<linearGradient id="paint59_linear_385_29342" x1="786.143" y1="317.551" x2="786.143" y2="516.116" gradientUnits="userSpaceOnUse">
<stop offset="0.197115" stop-color="#1FBCD7"/>
<stop offset="0.504808" stop-color="#FEB449"/>
<stop offset="1" stop-color="#FE5C36"/>
</linearGradient>
<linearGradient id="paint60_linear_385_29342" x1="786.397" y1="475.145" x2="786.397" y2="595.292" gradientUnits="userSpaceOnUse">
<stop offset="0.197115" stop-color="#1FBCD7"/>
<stop offset="0.504808" stop-color="#FEB449"/>
<stop offset="1" stop-color="#FE5C36"/>
</linearGradient>
<linearGradient id="paint61_linear_385_29342" x1="786.977" y1="632.633" x2="786.977" y2="674.457" gradientUnits="userSpaceOnUse">
<stop offset="0.197115" stop-color="#1FBCD7"/>
<stop offset="0.504808" stop-color="#FEB449"/>
<stop offset="1" stop-color="#FE5C36"/>
</linearGradient>
<linearGradient id="paint62_linear_385_29342" x1="786.987" y1="753.625" x2="786.987" y2="796.348" gradientUnits="userSpaceOnUse">
<stop offset="0.197115" stop-color="#1FBCD7"/>
<stop offset="0.504808" stop-color="#FEB449"/>
<stop offset="1" stop-color="#FE5C36"/>
</linearGradient>
<linearGradient id="paint63_linear_385_29342" x1="786.442" y1="832.793" x2="786.442" y2="953.84" gradientUnits="userSpaceOnUse">
<stop offset="0.197115" stop-color="#1FBCD7"/>
<stop offset="0.504808" stop-color="#FEB449"/>
<stop offset="1" stop-color="#FE5C36"/>
</linearGradient>
<linearGradient id="paint64_linear_385_29342" x1="786.236" y1="911.969" x2="786.236" y2="1111.43" gradientUnits="userSpaceOnUse">
<stop offset="0.197115" stop-color="#1FBCD7"/>
<stop offset="0.504808" stop-color="#FEB449"/>
<stop offset="1" stop-color="#FE5C36"/>
</linearGradient>
<linearGradient id="paint65_linear_385_29342" x1="786.142" y1="991.129" x2="786.142" y2="1269.19" gradientUnits="userSpaceOnUse">
<stop offset="0.197115" stop-color="#1FBCD7"/>
<stop offset="0.504808" stop-color="#FEB449"/>
<stop offset="1" stop-color="#FE5C36"/>
</linearGradient>
<linearGradient id="paint66_linear_385_29342" x1="786.118" y1="1070.29" x2="786.118" y2="1427.08" gradientUnits="userSpaceOnUse">
<stop offset="0.197115" stop-color="#1FBCD7"/>
<stop offset="0.504808" stop-color="#FEB449"/>
<stop offset="1" stop-color="#FE5C36"/>
</linearGradient>
<linearGradient id="paint67_linear_385_29342" x1="1900.95" y1="138.141" x2="1900.95" y2="1290.53" gradientUnits="userSpaceOnUse">
<stop offset="0.197115" stop-color="#1FBCD7"/>
<stop offset="0.504808" stop-color="#FEB449"/>
<stop offset="1" stop-color="#FE5C36"/>
</linearGradient>
<linearGradient id="paint68_linear_385_29342" x1="1848.45" y1="165.691" x2="1848.45" y2="1262.9" gradientUnits="userSpaceOnUse">
<stop offset="0.197115" stop-color="#1FBCD7"/>
<stop offset="0.504808" stop-color="#FEB449"/>
<stop offset="1" stop-color="#FE5C36"/>
</linearGradient>
<linearGradient id="paint69_linear_385_29342" x1="1795.97" y1="193.211" x2="1795.97" y2="1235.31" gradientUnits="userSpaceOnUse">
<stop offset="0.197115" stop-color="#1FBCD7"/>
<stop offset="0.504808" stop-color="#FEB449"/>
<stop offset="1" stop-color="#FE5C36"/>
</linearGradient>
<linearGradient id="paint70_linear_385_29342" x1="1743.48" y1="220.711" x2="1743.48" y2="1207.77" gradientUnits="userSpaceOnUse">
<stop offset="0.197115" stop-color="#1FBCD7"/>
<stop offset="0.504808" stop-color="#FEB449"/>
<stop offset="1" stop-color="#FE5C36"/>
</linearGradient>
<linearGradient id="paint71_linear_385_29342" x1="1691.02" y1="248.168" x2="1691.02" y2="1180.21" gradientUnits="userSpaceOnUse">
<stop offset="0.197115" stop-color="#1FBCD7"/>
<stop offset="0.504808" stop-color="#FEB449"/>
<stop offset="1" stop-color="#FE5C36"/>
</linearGradient>
<linearGradient id="paint72_linear_385_29342" x1="1638.55" y1="275.621" x2="1638.55" y2="1152.68" gradientUnits="userSpaceOnUse">
<stop offset="0.197115" stop-color="#1FBCD7"/>
<stop offset="0.504808" stop-color="#FEB449"/>
<stop offset="1" stop-color="#FE5C36"/>
</linearGradient>
<linearGradient id="paint73_linear_385_29342" x1="1586.04" y1="303.039" x2="1586.04" y2="1125.18" gradientUnits="userSpaceOnUse">
<stop offset="0.197115" stop-color="#1FBCD7"/>
<stop offset="0.504808" stop-color="#FEB449"/>
<stop offset="1" stop-color="#FE5C36"/>
</linearGradient>
<linearGradient id="paint74_linear_385_29342" x1="1533.59" y1="330.43" x2="1533.59" y2="1097.74" gradientUnits="userSpaceOnUse">
<stop offset="0.197115" stop-color="#1FBCD7"/>
<stop offset="0.504808" stop-color="#FEB449"/>
<stop offset="1" stop-color="#FE5C36"/>
</linearGradient>
<linearGradient id="paint75_linear_385_29342" x1="1481.1" y1="357.809" x2="1481.1" y2="1070.3" gradientUnits="userSpaceOnUse">
<stop offset="0.197115" stop-color="#1FBCD7"/>
<stop offset="0.504808" stop-color="#FEB449"/>
<stop offset="1" stop-color="#FE5C36"/>
</linearGradient>
<linearGradient id="paint76_linear_385_29342" x1="1823.31" y1="0.328125" x2="1823.31" y2="357.806" gradientUnits="userSpaceOnUse">
<stop offset="0.197115" stop-color="#1FBCD7"/>
<stop offset="0.504808" stop-color="#FEB449"/>
<stop offset="1" stop-color="#FE5C36"/>
</linearGradient>
<linearGradient id="paint77_linear_385_29342" x1="1823.1" y1="158.34" x2="1823.1" y2="436.969" gradientUnits="userSpaceOnUse">
<stop offset="0.197115" stop-color="#1FBCD7"/>
<stop offset="0.504808" stop-color="#FEB449"/>
<stop offset="1" stop-color="#FE5C36"/>
</linearGradient>
<linearGradient id="paint78_linear_385_29342" x1="1822.86" y1="316.398" x2="1822.86" y2="516.155" gradientUnits="userSpaceOnUse">
<stop offset="0.197115" stop-color="#1FBCD7"/>
<stop offset="0.504808" stop-color="#FEB449"/>
<stop offset="1" stop-color="#FE5C36"/>
</linearGradient>
<linearGradient id="paint79_linear_385_29342" x1="1822.62" y1="474.422" x2="1822.62" y2="595.294" gradientUnits="userSpaceOnUse">
<stop offset="0.197115" stop-color="#1FBCD7"/>
<stop offset="0.504808" stop-color="#FEB449"/>
<stop offset="1" stop-color="#FE5C36"/>
</linearGradient>
<linearGradient id="paint80_linear_385_29342" x1="1822.34" y1="632.539" x2="1822.34" y2="674.48" gradientUnits="userSpaceOnUse">
<stop offset="0.197115" stop-color="#1FBCD7"/>
<stop offset="0.504808" stop-color="#FEB449"/>
<stop offset="1" stop-color="#FE5C36"/>
</linearGradient>
<linearGradient id="paint81_linear_385_29342" x1="1822.25" y1="753.648" x2="1822.25" y2="796.488" gradientUnits="userSpaceOnUse">
<stop offset="0.197115" stop-color="#1FBCD7"/>
<stop offset="0.504808" stop-color="#FEB449"/>
<stop offset="1" stop-color="#FE5C36"/>
</linearGradient>
<linearGradient id="paint82_linear_385_29342" x1="1822.33" y1="832.812" x2="1822.33" y2="954.583" gradientUnits="userSpaceOnUse">
<stop offset="0.197115" stop-color="#1FBCD7"/>
<stop offset="0.504808" stop-color="#FEB449"/>
<stop offset="1" stop-color="#FE5C36"/>
</linearGradient>
<linearGradient id="paint83_linear_385_29342" x1="1822.39" y1="911.969" x2="1822.39" y2="1112.64" gradientUnits="userSpaceOnUse">
<stop offset="0.197115" stop-color="#1FBCD7"/>
<stop offset="0.504808" stop-color="#FEB449"/>
<stop offset="1" stop-color="#FE5C36"/>
</linearGradient>
<linearGradient id="paint84_linear_385_29342" x1="1822.42" y1="991.145" x2="1822.42" y2="1270.67" gradientUnits="userSpaceOnUse">
<stop offset="0.197115" stop-color="#1FBCD7"/>
<stop offset="0.504808" stop-color="#FEB449"/>
<stop offset="1" stop-color="#FE5C36"/>
</linearGradient>
<linearGradient id="paint85_linear_385_29342" x1="1822.47" y1="1070.31" x2="1822.47" y2="1428.69" gradientUnits="userSpaceOnUse">
<stop offset="0.197115" stop-color="#1FBCD7"/>
<stop offset="0.504808" stop-color="#FEB449"/>
<stop offset="1" stop-color="#FE5C36"/>
</linearGradient>
<linearGradient id="paint86_linear_385_29342" x1="1681.02" y1="0" x2="1681.02" y2="1429" gradientUnits="userSpaceOnUse">
<stop offset="0.197115" stop-color="#1FBCD7"/>
<stop offset="0.504808" stop-color="#FEB449"/>
<stop offset="1" stop-color="#FE5C36"/>
</linearGradient>
<linearGradient id="paint87_linear_385_29342" x1="1649.79" y1="27.6836" x2="1649.79" y2="1401.25" gradientUnits="userSpaceOnUse">
<stop offset="0.197115" stop-color="#1FBCD7"/>
<stop offset="0.504808" stop-color="#FEB449"/>
<stop offset="1" stop-color="#FE5C36"/>
</linearGradient>
<linearGradient id="paint88_linear_385_29342" x1="1618.55" y1="55.3281" x2="1618.55" y2="1373.52" gradientUnits="userSpaceOnUse">
<stop offset="0.197115" stop-color="#1FBCD7"/>
<stop offset="0.504808" stop-color="#FEB449"/>
<stop offset="1" stop-color="#FE5C36"/>
</linearGradient>
<linearGradient id="paint89_linear_385_29342" x1="1587.33" y1="82.9492" x2="1587.33" y2="1345.82" gradientUnits="userSpaceOnUse">
<stop offset="0.197115" stop-color="#1FBCD7"/>
<stop offset="0.504808" stop-color="#FEB449"/>
<stop offset="1" stop-color="#FE5C36"/>
</linearGradient>
<linearGradient id="paint90_linear_385_29342" x1="1556.1" y1="110.57" x2="1556.1" y2="1318.19" gradientUnits="userSpaceOnUse">
<stop offset="0.197115" stop-color="#1FBCD7"/>
<stop offset="0.504808" stop-color="#FEB449"/>
<stop offset="1" stop-color="#FE5C36"/>
</linearGradient>
<linearGradient id="paint91_linear_385_29342" x1="1524.89" y1="138.141" x2="1524.89" y2="1290.53" gradientUnits="userSpaceOnUse">
<stop offset="0.197115" stop-color="#1FBCD7"/>
<stop offset="0.504808" stop-color="#FEB449"/>
<stop offset="1" stop-color="#FE5C36"/>
</linearGradient>
<linearGradient id="paint92_linear_385_29342" x1="1493.65" y1="165.691" x2="1493.65" y2="1262.9" gradientUnits="userSpaceOnUse">
<stop offset="0.197115" stop-color="#1FBCD7"/>
<stop offset="0.504808" stop-color="#FEB449"/>
<stop offset="1" stop-color="#FE5C36"/>
</linearGradient>
<linearGradient id="paint93_linear_385_29342" x1="1462.42" y1="193.211" x2="1462.42" y2="1235.31" gradientUnits="userSpaceOnUse">
<stop offset="0.197115" stop-color="#1FBCD7"/>
<stop offset="0.504808" stop-color="#FEB449"/>
<stop offset="1" stop-color="#FE5C36"/>
</linearGradient>
<linearGradient id="paint94_linear_385_29342" x1="1431.19" y1="220.711" x2="1431.19" y2="1207.77" gradientUnits="userSpaceOnUse">
<stop offset="0.197115" stop-color="#1FBCD7"/>
<stop offset="0.504808" stop-color="#FEB449"/>
<stop offset="1" stop-color="#FE5C36"/>
</linearGradient>
<linearGradient id="paint95_linear_385_29342" x1="1399.96" y1="248.187" x2="1399.96" y2="1180.23" gradientUnits="userSpaceOnUse">
<stop offset="0.197115" stop-color="#1FBCD7"/>
<stop offset="0.504808" stop-color="#FEB449"/>
<stop offset="1" stop-color="#FE5C36"/>
</linearGradient>
<linearGradient id="paint96_linear_385_29342" x1="1368.76" y1="275.621" x2="1368.76" y2="1152.68" gradientUnits="userSpaceOnUse">
<stop offset="0.197115" stop-color="#1FBCD7"/>
<stop offset="0.504808" stop-color="#FEB449"/>
<stop offset="1" stop-color="#FE5C36"/>
</linearGradient>
<linearGradient id="paint97_linear_385_29342" x1="1337.54" y1="303.039" x2="1337.54" y2="1125.18" gradientUnits="userSpaceOnUse">
<stop offset="0.197115" stop-color="#1FBCD7"/>
<stop offset="0.504808" stop-color="#FEB449"/>
<stop offset="1" stop-color="#FE5C36"/>
</linearGradient>
<linearGradient id="paint98_linear_385_29342" x1="1306.3" y1="330.43" x2="1306.3" y2="1097.74" gradientUnits="userSpaceOnUse">
<stop offset="0.197115" stop-color="#1FBCD7"/>
<stop offset="0.504808" stop-color="#FEB449"/>
<stop offset="1" stop-color="#FE5C36"/>
</linearGradient>
<linearGradient id="paint99_linear_385_29342" x1="1275.07" y1="357.809" x2="1275.07" y2="1070.3" gradientUnits="userSpaceOnUse">
<stop offset="0.197115" stop-color="#1FBCD7"/>
<stop offset="0.504808" stop-color="#FEB449"/>
<stop offset="1" stop-color="#FE5C36"/>
</linearGradient>
<linearGradient id="paint100_linear_385_29342" x1="1479.26" y1="0.726562" x2="1479.26" y2="357.807" gradientUnits="userSpaceOnUse">
<stop offset="0.197115" stop-color="#1FBCD7"/>
<stop offset="0.504808" stop-color="#FEB449"/>
<stop offset="1" stop-color="#FE5C36"/>
</linearGradient>
<linearGradient id="paint101_linear_385_29342" x1="1479.05" y1="158.633" x2="1479.05" y2="436.97" gradientUnits="userSpaceOnUse">
<stop offset="0.197115" stop-color="#1FBCD7"/>
<stop offset="0.504808" stop-color="#FEB449"/>
<stop offset="1" stop-color="#FE5C36"/>
</linearGradient>
<linearGradient id="paint102_linear_385_29342" x1="1478.81" y1="316.555" x2="1478.81" y2="516.136" gradientUnits="userSpaceOnUse">
<stop offset="0.197115" stop-color="#1FBCD7"/>
<stop offset="0.504808" stop-color="#FEB449"/>
<stop offset="1" stop-color="#FE5C36"/>
</linearGradient>
<linearGradient id="paint103_linear_385_29342" x1="1478.53" y1="474.508" x2="1478.53" y2="595.298" gradientUnits="userSpaceOnUse">
<stop offset="0.197115" stop-color="#1FBCD7"/>
<stop offset="0.504808" stop-color="#FEB449"/>
<stop offset="1" stop-color="#FE5C36"/>
</linearGradient>
<linearGradient id="paint104_linear_385_29342" x1="1478.21" y1="632.539" x2="1478.21" y2="674.468" gradientUnits="userSpaceOnUse">
<stop offset="0.197115" stop-color="#1FBCD7"/>
<stop offset="0.504808" stop-color="#FEB449"/>
<stop offset="1" stop-color="#FE5C36"/>
</linearGradient>
<linearGradient id="paint105_linear_385_29342" x1="1478.15" y1="753.648" x2="1478.15" y2="796.477" gradientUnits="userSpaceOnUse">
<stop offset="0.197115" stop-color="#1FBCD7"/>
<stop offset="0.504808" stop-color="#FEB449"/>
<stop offset="1" stop-color="#FE5C36"/>
</linearGradient>
<linearGradient id="paint106_linear_385_29342" x1="1478.36" y1="832.812" x2="1478.36" y2="954.502" gradientUnits="userSpaceOnUse">
<stop offset="0.197115" stop-color="#1FBCD7"/>
<stop offset="0.504808" stop-color="#FEB449"/>
<stop offset="1" stop-color="#FE5C36"/>
</linearGradient>
<linearGradient id="paint107_linear_385_29342" x1="1478.53" y1="911.969" x2="1478.53" y2="1112.45" gradientUnits="userSpaceOnUse">
<stop offset="0.197115" stop-color="#1FBCD7"/>
<stop offset="0.504808" stop-color="#FEB449"/>
<stop offset="1" stop-color="#FE5C36"/>
</linearGradient>
<linearGradient id="paint108_linear_385_29342" x1="1478.66" y1="991.129" x2="1478.66" y2="1270.36" gradientUnits="userSpaceOnUse">
<stop offset="0.197115" stop-color="#1FBCD7"/>
<stop offset="0.504808" stop-color="#FEB449"/>
<stop offset="1" stop-color="#FE5C36"/>
</linearGradient>
<linearGradient id="paint109_linear_385_29342" x1="1478.74" y1="1070.31" x2="1478.74" y2="1428.29" gradientUnits="userSpaceOnUse">
<stop offset="0.197115" stop-color="#1FBCD7"/>
<stop offset="0.504808" stop-color="#FEB449"/>
<stop offset="1" stop-color="#FE5C36"/>
</linearGradient>
<linearGradient id="paint110_linear_385_29342" x1="1198.67" y1="0" x2="1198.67" y2="1429" gradientUnits="userSpaceOnUse">
<stop offset="0.197115" stop-color="#1FBCD7"/>
<stop offset="0.504808" stop-color="#FEB449"/>
<stop offset="1" stop-color="#FE5C36"/>
</linearGradient>
<linearGradient id="paint111_linear_385_29342" x1="1188.7" y1="27.6836" x2="1188.7" y2="1401.25" gradientUnits="userSpaceOnUse">
<stop offset="0.197115" stop-color="#1FBCD7"/>
<stop offset="0.504808" stop-color="#FEB449"/>
<stop offset="1" stop-color="#FE5C36"/>
</linearGradient>
<linearGradient id="paint112_linear_385_29342" x1="1178.74" y1="55.3281" x2="1178.74" y2="1373.52" gradientUnits="userSpaceOnUse">
<stop offset="0.197115" stop-color="#1FBCD7"/>
<stop offset="0.504808" stop-color="#FEB449"/>
<stop offset="1" stop-color="#FE5C36"/>
</linearGradient>
<linearGradient id="paint113_linear_385_29342" x1="1168.76" y1="82.9492" x2="1168.76" y2="1345.82" gradientUnits="userSpaceOnUse">
<stop offset="0.197115" stop-color="#1FBCD7"/>
<stop offset="0.504808" stop-color="#FEB449"/>
<stop offset="1" stop-color="#FE5C36"/>
</linearGradient>
<linearGradient id="paint114_linear_385_29342" x1="1158.77" y1="110.57" x2="1158.77" y2="1318.19" gradientUnits="userSpaceOnUse">
<stop offset="0.197115" stop-color="#1FBCD7"/>
<stop offset="0.504808" stop-color="#FEB449"/>
<stop offset="1" stop-color="#FE5C36"/>
</linearGradient>
<linearGradient id="paint115_linear_385_29342" x1="1148.83" y1="138.141" x2="1148.83" y2="1290.53" gradientUnits="userSpaceOnUse">
<stop offset="0.197115" stop-color="#1FBCD7"/>
<stop offset="0.504808" stop-color="#FEB449"/>
<stop offset="1" stop-color="#FE5C36"/>
</linearGradient>
<linearGradient id="paint116_linear_385_29342" x1="1138.84" y1="165.691" x2="1138.84" y2="1262.9" gradientUnits="userSpaceOnUse">
<stop offset="0.197115" stop-color="#1FBCD7"/>
<stop offset="0.504808" stop-color="#FEB449"/>
<stop offset="1" stop-color="#FE5C36"/>
</linearGradient>
<linearGradient id="paint117_linear_385_29342" x1="1128.88" y1="193.211" x2="1128.88" y2="1235.31" gradientUnits="userSpaceOnUse">
<stop offset="0.197115" stop-color="#1FBCD7"/>
<stop offset="0.504808" stop-color="#FEB449"/>
<stop offset="1" stop-color="#FE5C36"/>
</linearGradient>
<linearGradient id="paint118_linear_385_29342" x1="1118.91" y1="220.711" x2="1118.91" y2="1207.77" gradientUnits="userSpaceOnUse">
<stop offset="0.197115" stop-color="#1FBCD7"/>
<stop offset="0.504808" stop-color="#FEB449"/>
<stop offset="1" stop-color="#FE5C36"/>
</linearGradient>
<linearGradient id="paint119_linear_385_29342" x1="1108.94" y1="248.187" x2="1108.94" y2="1180.23" gradientUnits="userSpaceOnUse">
<stop offset="0.197115" stop-color="#1FBCD7"/>
<stop offset="0.504808" stop-color="#FEB449"/>
<stop offset="1" stop-color="#FE5C36"/>
</linearGradient>
<linearGradient id="paint120_linear_385_29342" x1="1098.97" y1="275.621" x2="1098.97" y2="1152.68" gradientUnits="userSpaceOnUse">
<stop offset="0.197115" stop-color="#1FBCD7"/>
<stop offset="0.504808" stop-color="#FEB449"/>
<stop offset="1" stop-color="#FE5C36"/>
</linearGradient>
<linearGradient id="paint121_linear_385_29342" x1="1089" y1="303.039" x2="1089" y2="1125.18" gradientUnits="userSpaceOnUse">
<stop offset="0.197115" stop-color="#1FBCD7"/>
<stop offset="0.504808" stop-color="#FEB449"/>
<stop offset="1" stop-color="#FE5C36"/>
</linearGradient>
<linearGradient id="paint122_linear_385_29342" x1="1079.02" y1="330.43" x2="1079.02" y2="1097.74" gradientUnits="userSpaceOnUse">
<stop offset="0.197115" stop-color="#1FBCD7"/>
<stop offset="0.504808" stop-color="#FEB449"/>
<stop offset="1" stop-color="#FE5C36"/>
</linearGradient>
<linearGradient id="paint123_linear_385_29342" x1="1069.06" y1="357.809" x2="1069.06" y2="1070.3" gradientUnits="userSpaceOnUse">
<stop offset="0.197115" stop-color="#1FBCD7"/>
<stop offset="0.504808" stop-color="#FEB449"/>
<stop offset="1" stop-color="#FE5C36"/>
</linearGradient>
<linearGradient id="paint124_linear_385_29342" x1="1135.33" y1="1.90234" x2="1135.33" y2="357.792" gradientUnits="userSpaceOnUse">
<stop offset="0.197115" stop-color="#1FBCD7"/>
<stop offset="0.504808" stop-color="#FEB449"/>
<stop offset="1" stop-color="#FE5C36"/>
</linearGradient>
<linearGradient id="paint125_linear_385_29342" x1="1135.25" y1="159.812" x2="1135.25" y2="436.97" gradientUnits="userSpaceOnUse">
<stop offset="0.197115" stop-color="#1FBCD7"/>
<stop offset="0.504808" stop-color="#FEB449"/>
<stop offset="1" stop-color="#FE5C36"/>
</linearGradient>
<linearGradient id="paint126_linear_385_29342" x1="1135.13" y1="317.551" x2="1135.13" y2="516.116" gradientUnits="userSpaceOnUse">
<stop offset="0.197115" stop-color="#1FBCD7"/>
<stop offset="0.504808" stop-color="#FEB449"/>
<stop offset="1" stop-color="#FE5C36"/>
</linearGradient>
<linearGradient id="paint127_linear_385_29342" x1="1134.89" y1="475.145" x2="1134.89" y2="595.292" gradientUnits="userSpaceOnUse">
<stop offset="0.197115" stop-color="#1FBCD7"/>
<stop offset="0.504808" stop-color="#FEB449"/>
<stop offset="1" stop-color="#FE5C36"/>
</linearGradient>
<linearGradient id="paint128_linear_385_29342" x1="1134.3" y1="632.633" x2="1134.3" y2="674.457" gradientUnits="userSpaceOnUse">
<stop offset="0.197115" stop-color="#1FBCD7"/>
<stop offset="0.504808" stop-color="#FEB449"/>
<stop offset="1" stop-color="#FE5C36"/>
</linearGradient>
<linearGradient id="paint129_linear_385_29342" x1="1134.29" y1="753.625" x2="1134.29" y2="796.348" gradientUnits="userSpaceOnUse">
<stop offset="0.197115" stop-color="#1FBCD7"/>
<stop offset="0.504808" stop-color="#FEB449"/>
<stop offset="1" stop-color="#FE5C36"/>
</linearGradient>
<linearGradient id="paint130_linear_385_29342" x1="1134.84" y1="832.793" x2="1134.84" y2="953.84" gradientUnits="userSpaceOnUse">
<stop offset="0.197115" stop-color="#1FBCD7"/>
<stop offset="0.504808" stop-color="#FEB449"/>
<stop offset="1" stop-color="#FE5C36"/>
</linearGradient>
<linearGradient id="paint131_linear_385_29342" x1="1135.04" y1="911.969" x2="1135.04" y2="1111.43" gradientUnits="userSpaceOnUse">
<stop offset="0.197115" stop-color="#1FBCD7"/>
<stop offset="0.504808" stop-color="#FEB449"/>
<stop offset="1" stop-color="#FE5C36"/>
</linearGradient>
<linearGradient id="paint132_linear_385_29342" x1="1135.14" y1="991.129" x2="1135.14" y2="1269.19" gradientUnits="userSpaceOnUse">
<stop offset="0.197115" stop-color="#1FBCD7"/>
<stop offset="0.504808" stop-color="#FEB449"/>
<stop offset="1" stop-color="#FE5C36"/>
</linearGradient>
<linearGradient id="paint133_linear_385_29342" x1="1135.16" y1="1070.29" x2="1135.16" y2="1427.08" gradientUnits="userSpaceOnUse">
<stop offset="0.197115" stop-color="#1FBCD7"/>
<stop offset="0.504808" stop-color="#FEB449"/>
<stop offset="1" stop-color="#FE5C36"/>
</linearGradient>
<linearGradient id="paint134_linear_385_29342" x1="960.649" y1="2.92578" x2="960.649" y2="1426.11" gradientUnits="userSpaceOnUse">
<stop offset="0.197115" stop-color="#1FBCD7"/>
<stop offset="0.504808" stop-color="#FEB449"/>
<stop offset="1" stop-color="#FE5C36"/>
</linearGradient>
</defs>
</svg>
