<svg xmlns="http://www.w3.org/2000/svg" xmlns:xlink="http://www.w3.org/1999/xlink" id="Layer_1" x="0" y="0" version="1.1" viewBox="0 0 600 218" xml:space="preserve" style="enable-background:new 0 0 600 218"><style type="text/css">.st0{fill:#ff6a8d}.st1{opacity:.58;fill:url(#SVGID_1_);enable-background:new}.st2{fill:#9257ff}.st4{fill:#1ce0ff}.st6{fill:#fff}</style><g id="orkes-logo-purple"><g id="orkes" transform="translate(57.286115, 42.425238)"><g id="Group"><g id="Path"><path d="M51.8,112.5L51.8,112.5L51.8,112.5C41.5,95.6,36,70.5,45,44.9l0,0l0,0c4.1-12,11.5-24.3,22.9-35.5 L48.6,28.8l0,0L28.9,48.4L9.5,67.8c-16.9,16.9-9,45.8,14.2,51.8L75.6,133C66.8,130.5,58.4,123.2,51.8,112.5z" class="st0"/><linearGradient id="SVGID_1_" x1="-293.106" x2="-292.108" y1="603.595" y2="603.595" gradientTransform="matrix(75.0781 0 0 -123.5743 22006.084 74660.0469)" gradientUnits="userSpaceOnUse"><stop offset="0" style="stop-color:#d26a8d"/><stop offset=".096" style="stop-color:#da6a8d;stop-opacity:.9044"/><stop offset=".402" style="stop-color:#ef6a8d;stop-opacity:.598"/><stop offset=".705" style="stop-color:#fb6a8d;stop-opacity:.2947"/><stop offset="1" style="stop-color:#ff6a8d;stop-opacity:0"/></linearGradient><path d="M51.8,112.5L51.8,112.5L51.8,112.5C41.5,95.6,36,70.5,45,44.9l0,0l0,0c4.1-12,11.5-24.3,22.9-35.5 L48.6,28.8l0,0L28.9,48.4L9.5,67.8c-16.9,16.9-9,45.8,14.2,51.8L75.6,133C66.8,130.5,58.4,123.2,51.8,112.5z" class="st1"/><path d="M67.7,9.4C56.2,20.9,49.1,32.9,44.7,44.9c25.4-8.7,50.5-3.5,67.7,6.8c10.9-12,10.6-30.8-0.8-42.6 C100.1-2.1,80.5-3.4,67.7,9.4z" class="st2"/><linearGradient id="SVGID_00000088831507770609560920000007078603713166820245_" x1="-292.948" x2="-292.157" y1="598.824" y2="598.573" gradientTransform="matrix(75.6363 0 0 -51.4258 22215.7246 30815.25)" gradientUnits="userSpaceOnUse"><stop offset="0" style="stop-color:#7741d8"/><stop offset=".676" style="stop-color:#8d53f8;stop-opacity:.1599"/><stop offset=".804" style="stop-color:#9257ff;stop-opacity:0"/></linearGradient><path style="opacity:.51;fill:url(#SVGID_00000088831507770609560920000007078603713166820245_);enable-background:new" d="M67.7,9.4C56.2,20.9,49.1,32.9,44.7,44.9c25.4-8.7,50.5-3.5,67.7,6.8c10.9-12,10.6-30.8-0.8-42.6C100.1-2.1,80.5-3.4,67.7,9.4z"/></g><path id="Path_00000078728167934934926740000007331146436009477780_" d="M132.8,75.1l-13.4-51.8l0,0 c2.5,9.8,0,20.5-7.1,28.4l0,0l0,0c-0.3,0.3-0.5,0.8-1.1,1.1l-59.5,59.7c6.5,10.6,15,18,23.5,20.5c10.6,2.7,22.1-0.3,30-8.2 l19.6-19.6C132.6,97.5,135.8,86.1,132.8,75.1z" class="st4"/><linearGradient id="Path_00000142873132710539647810000009534909938565984937_" x1="-293.05" x2="-292.495" y1="602.744" y2="603.492" gradientTransform="matrix(82.1229 0 0 -110.6476 24144.7129 66819.9922)" gradientUnits="userSpaceOnUse"><stop offset="0" style="stop-color:#198fe1"/><stop offset=".101" style="stop-color:#1a9ee7;stop-opacity:.8986"/><stop offset=".33" style="stop-color:#1bbbf1;stop-opacity:.6703"/><stop offset=".557" style="stop-color:#1bd0f9;stop-opacity:.4428"/><stop offset=".782" style="stop-color:#1cdcfd;stop-opacity:.2182"/><stop offset="1" style="stop-color:#1ce0ff;stop-opacity:0"/></linearGradient><path id="Path_00000010275849744193015210000013517819878272204455_" d="M132.8,75.1l-13.4-51.8l0,0c2.5,9.8,0,20.5-7.1,28.4l0,0l0,0c-0.3,0.3-0.5,0.8-1.1,1.1l-59.5,59.7c6.5,10.6,15,18,23.5,20.5 c10.6,2.7,22.1-0.3,30-8.2l19.6-19.6C132.6,97.5,135.8,86.1,132.8,75.1z" style="fill:url(#Path_00000142873132710539647810000009534909938565984937_)"/></g><g id="Group_00000178898305336210417530000004316293145571310525_" transform="translate(159.725378, 4.949236)"><path id="Path_00000163786442538648929600000001467674198056397216_" d="M124.8,33.9c-0.5,0-1.4,0-1.9,0 c-5.5,0-10.1,1.4-13.6,4.4c-3.5,2.7-6.3,6.3-7.9,9.8l-0.5,1.1l-1.4-9c-0.5-3.8-3.8-6.8-7.9-6.8c-4.4,0-7.9,3.5-7.9,7.9v57 c0,5.2,4.4,9.5,9.5,9.5s9.5-4.4,9.5-9.5V70.2c0-7.4,1.6-12.8,4.9-16.1s7.4-4.9,12.5-4.9c1.1,0,1.9,0,3,0.3c4.1,0.5,7.6-2.2,8.5-6 c0.5-2.2,0-4.4-1.4-6.3C128.9,35.3,126.7,34.2,124.8,33.9z" class="st6"/><path id="Path_00000093861013182805316530000000774498292223187373_" d="M148,107.6c5.2,0,9.5-4.4,9.5-9.5V82.2 l6.3-6.3l18.5,27.6c1.6,2.5,4.6,4.1,7.6,4.1c3.5,0,6.5-1.9,8.2-4.9c1.6-3,1.4-6.5-0.5-9.5L178,65l14.2-15.5c2.2-2.5,3-6,1.6-9 c-1.4-3-4.4-4.9-7.6-4.9c-2.5,0-4.9,1.1-6.5,3l-22.1,25.6V9.6c0-5.2-4.4-9.5-9.5-9.5s-9.5,4.4-9.5,9.5v88.7 C138.4,103.5,142.8,107.6,148,107.6z" class="st6"/><path id="Shape" d="M237.2,33.9c-5.2,0-10.1,0.8-14.5,2.7c-4.4,1.9-8.2,4.4-11.2,7.6c-3,3.3-5.5,7.1-7.1,11.7 s-2.5,9.8-2.5,15.3c0,6.3,1.1,11.7,3,16.4c2.2,4.6,4.9,8.2,8.5,11.2s7.6,5.2,12.3,6.5c4.6,1.4,9.8,2.2,15,2.2 c5.5,0,10.4-0.5,14.5-1.4c1.4-0.3,2.5-0.5,3.5-0.8c3.5-1.1,5.7-4.6,4.6-8.2c-0.5-1.9-1.6-3.3-3.3-4.4c-1.6-0.8-3.5-1.1-5.2-0.5 c-0.5,0-0.8,0.3-1.4,0.3c-3,0.8-6.5,1.1-10.6,1.1c-6.3,0-11.7-1.4-15.5-4.4c-4.1-2.7-6.3-7.4-6.3-13.1v-0.8h39 c4.6,0,8.5-3.8,8.5-8.5v-0.3c0-10.4-2.7-18.5-8.5-24.6C254.4,36.9,246.7,33.9,237.2,33.9z M248.9,62.6l-27.6,0.3v-0.5 c0.5-4.6,2.2-8.5,4.6-11.2c2.7-2.7,6-4.1,10.1-4.1c2.2,0,4.1,0.5,5.7,1.4s2.7,1.9,3.8,3.3c1.1,1.4,1.9,3,2.2,4.9 c0.5,1.9,0.8,3.8,0.8,5.7v0.3H248.9z" class="st6"/><path id="Path_00000080908602984981595230000015171851782627976609_" d="M274.8,55.5c0,5.5,1.4,9.8,4.1,12.8 c2.7,3.3,7.1,5.7,13.1,7.9l4.6,1.4c4.9,1.4,8.5,2.7,10.4,3.8c1.9,1.1,3,3,3,5.2s-1.1,3.8-3,5.2c-1.9,1.4-4.9,1.9-9,1.9 c-3.3,0-6.5-0.5-9.8-1.4c-0.5-0.3-1.4-0.3-1.9-0.5c-0.8-0.3-1.6-0.3-2.5-0.3c-1.1,0-2.2,0.3-3.3,0.8c-1.6,0.8-3,2.5-3.5,4.1v0.3 c-0.5,1.9-0.3,3.8,0.5,5.5c0.8,1.6,2.5,3,4.1,3.5c5.2,1.6,10.9,2.2,17.2,2.2c9.3,0,16.6-2.2,21.8-6.3c5.2-4.1,7.9-9.8,7.9-16.6 c0-5.2-1.6-9.5-4.6-12.8s-7.9-6-13.9-7.6l-4.4-1.4c-4.6-1.4-7.9-2.7-9.5-3.8c-1.6-1.4-2.5-3-2.5-4.9c0-1.9,0.8-3.5,2.7-4.9 c1.9-1.1,4.4-1.6,7.6-1.6c3.3,0,6.8,0.5,10.4,1.6c3.5,1.1,7.4-1.1,8.5-4.6c0.5-1.9,0.3-3.5-0.5-5.2c-0.8-1.6-2.5-2.7-4.1-3.3 c-4.9-1.4-10.4-2.2-16.1-2.2c-8.7,0-15.5,1.9-20.2,6C277,44,274.8,49.2,274.8,55.5z" class="st6"/><path id="Shape_00000006676905194646622280000017125203102420063118_" d="M70.5,86c1.9-4.6,2.7-9.8,2.7-15.8 S72.4,59,70.5,54.4s-4.4-8.5-7.6-11.2c-3.3-3-7.1-5.2-11.5-6.8c-4.4-1.6-9.3-2.5-14.2-2.5c-5.2,0-9.8,0.8-14.5,2.5 c-4.4,1.6-8.5,4.1-11.7,7.4s-6,7.1-7.6,11.7c-1.9,4.6-2.7,10.1-2.7,16.1c0,5.7,0.8,10.9,2.7,15.3C5.3,91.2,7.8,95,11,98.3 c3.3,3,7.1,5.5,11.5,6.8c4.4,1.6,9.3,2.5,14.2,2.5c5.2,0,9.8-0.8,14.5-2.7c4.4-1.6,8.5-4.1,11.7-7.4C66.1,94.5,68.6,90.4,70.5,86 z M52.2,81.7c-0.8,3-2.2,5.2-3.5,7.1c-1.6,1.9-3.3,3.3-5.2,3.8c-1.9,0.8-4.1,1.1-6,1.1c-2.2,0-4.4-0.5-6.3-1.4 c-1.9-0.8-3.8-2.2-5.5-4.1S23,84.1,22,81.1c-0.8-3-1.4-6.3-1.4-10.1c0-4.4,0.5-8.2,1.4-10.9c0.8-3,2.2-5.2,3.5-7.1 c1.6-1.9,3.3-3,5.2-3.8c3.8-1.6,8.5-1.6,12.3,0.3c1.9,0.8,3.8,2.2,5.5,4.1s2.7,4.4,3.5,7.1c0.8,3,1.4,6.5,1.4,10.6 C53.6,75.1,53.1,78.7,52.2,81.7z" class="st6"/></g></g></g></svg>